STARTFONT 2.1
COMMENT
COMMENT Converted from OpenType font "Font 90 Icons.ttf" by "otf2bdf 3.0".
COMMENT
FONT -FreeType-Font 90 Icons-Medium-R-Normal--54-390-100-100-P-199-ISO10646-1
SIZE 39 100 100
FONTBOUNDINGBOX 58 56 0 -11
STARTPROPERTIES 19
FOUNDRY "FreeType"
FAMILY_NAME "Font 90 Icons"
WEIGHT_NAME "Medium"
SLANT "R"
SETWIDTH_NAME "Normal"
ADD_STYLE_NAME ""
PIXEL_SIZE 54
POINT_SIZE 390
RESOLUTION_X 100
RESOLUTION_Y 100
SPACING "P"
AVERAGE_WIDTH 199
CHARSET_REGISTRY "ISO10646"
CHARSET_ENCODING "1"
FONT_ASCENT 45
FONT_DESCENT 11
COPYRIGHT "Typeface © (el-harrak.blogspot.com). <darrati10@gmail.com>. All Rights Reserved"
_OTF_FONTFILE "Font 90 Icons.ttf"
_OTF_PSNAME "Font 90 Icons"
ENDPROPERTIES
CHARS 242
STARTCHAR 0000
ENCODING 0
SWIDTH 0 0
DWIDTH 0 0
BBX 0 0 0 0
BITMAP
ENDCHAR
STARTCHAR 001D
ENCODING 29
SWIDTH 0 0
DWIDTH 0 0
BBX 0 0 0 0
BITMAP
ENDCHAR
STARTCHAR 0020
ENCODING 32
SWIDTH 240 0
DWIDTH 13 0
BBX 0 0 0 0
BITMAP
ENDCHAR
STARTCHAR 0021
ENCODING 33
SWIDTH 978 0
DWIDTH 53 0
BBX 52 52 0 -9
BITMAP
00000FFF800000
00007FFFF00000
0003FFFE7C0000
0007FFFF8F0000
001FFFFFC38000
003FFFFFF0E000
007FFFFFF07000
00FFFFFFF83800
01FFFFFFFC1C00
03FFFFFFFC0E00
07FFFF8FFC0600
07FFFF07FC0300
0FFFFE03FC0180
1FFFFE03FE0180
1FFFFE03FC00C0
3FFFFE07FC0040
3FFFFF0FFC0060
3FFFFFFFFC0060
7FFFFFFFFC0020
7FFFFFFFF80030
7FFFFFFFF00030
7FFFFFFFF00030
7FFFFFFFE00030
FFFFFFFF800010
FFFFFFFF000010
FFFFFFF8000010
FFFFFC00000010
FFFFF000000010
FFFFE000000030
7FFFC000000030
7FFF8000000030
7FFF0000000030
7FFE0000000030
7FFE0000000060
3FFE0020000060
3FFC00F8000060
1FFC01FC0000C0
1FFC01FC0000C0
0FFC01FC000180
0FFC01F8000300
07FC00F8000300
03FE0000000600
03FE0000000C00
01FE0000001800
00FF0000003000
007F8000006000
001FC00001C000
000FE000078000
0003F0001E0000
0000FE00F80000
00003FFFE00000
000001FA000000
ENDCHAR
STARTCHAR 0022
ENCODING 34
SWIDTH 978 0
DWIDTH 53 0
BBX 52 42 0 -4
BITMAP
00001FFFC00000
00003FFFE00000
00003C01E00000
00003800E00000
00003000600000
00003000600000
00003000600000
1FFFFFFFFFFFC0
3FFFFFFFFFFFE0
7FFFFFFFFFFFF0
7FFFFFFFFFFFF0
FFFFFFFFFFFFF0
FFFFFFFFFFFFF0
FFFFFFFFFFFFF0
FFFFFFFFFFFFF0
FFFFFFFFFFFFF0
FFFFFFFFFFFFF0
FFFFFFFFFFFFF0
FFFFFFFFFFFFF0
FFFFFFFFFFFFF0
FFFFFFFFFFFFF0
FFFFFFFFFFFFF0
FFFFFFFFFFFFF0
FFFFFFFFFFFFF0
FFFFFFFFFFFFF0
FFFFFFFFFFFFF0
FFFFFFFFFFFFF0
FFFFFFFFFFFFF0
FFFFFFFFFFFFF0
FFFFFFFFFFFFF0
FFFFFFFFFFFFF0
FFFFFFFFFFFFF0
FFFFFFFFFFFFF0
FFFFFFFFFFFFF0
FFFFFFFFFFFFF0
FFFFFFFFFFFFF0
FFFFFFFFFFFFF0
7FFFFFFFFFFFF0
7FFFFFFFFFFFF0
7FFFFFFFFFFFF0
3FFFFFFFFFFFE0
07FFFFFFFFFF00
ENDCHAR
STARTCHAR 0023
ENCODING 35
SWIDTH 978 0
DWIDTH 53 0
BBX 49 55 2 -11
BITMAP
00007800000000
0007FF80000000
001FFFF0000000
F87FFFFE000000
FCFFFFFFC00000
FDFFFFFFF83800
FCFFFFFFFFF800
7CFFFFFFFFF800
7CFFFFFFFFF800
7EFFFFFFFFFC00
7EFFFFFFFFFC00
7E7FFFFFFFFC00
7E7FFFFFFFFC00
3E7FFFFFFFFC00
3E7FFFFFFFFC00
3F7FFFFFFFFE00
3F7FFFFFFFFE00
3F3FFFFFFFFE00
1F3FFFFFFFFE00
1F3FFFFFFFFE00
1FBFFFFFFFFE00
1FBFFFFFFFFE00
1F9FFFFFFFFF00
1F9FFFFFFFFF00
0F9FFFFFFFFF00
0F9FFFFFFFFF00
0FDFF001FFFF00
0FCF80003FFF00
0FCE00000FFF80
0FCC000003FF80
07C8000000FF80
07C00000000E00
07E00000000000
07E00000000000
07E00000000000
03E00000000000
03E00000000000
03F00000000000
03F00000000000
03F00000000000
03F00000000000
01F00000000000
01F00000000000
01F80000000000
01F80000000000
01F80000000000
00F80000000000
00F80000000000
00FC0000000000
00FC0000000000
00FC0000000000
00FC0000000000
007C0000000000
007C0000000000
007E0000000000
ENDCHAR
STARTCHAR 0024
ENCODING 36
SWIDTH 978 0
DWIDTH 53 0
BBX 52 52 0 -9
BITMAP
01F00000000000
03FC0000000000
07FE0000000000
0FFE0000000000
1FFF0000000000
3FFF8000000000
7FFFC000000000
7FFFE000000000
FFFFF000000000
FFFFFC00000000
7FFFFE00000000
7FFFFF00000000
7FFFFFC0000000
3FFFFFA0000000
1FFFFF70000000
0FFFFEF8000000
03FFFDFC000000
01FFFBFF000000
00FFF7FF800000
007FEFFF000000
007FDFFE000000
003FBFFC000000
001F7FF8000000
000EFFF0000000
0005FFE0000000
0007FFF0000000
0003FFF8000000
0001FF3C000000
0000FE1E000000
00007C0E000000
00007807000000
00003003800000
00000001C00000
00000000E00000
00000000300000
00000000180000
000000000C0000
00000000060000
00000000030000
00000000018000
0000000000C000
00000000006000
00000000003000
00000000001000
00000000000800
00000000000400
00000000000200
00000000000100
00000000000080
00000000000040
00000000000020
00000000000010
ENDCHAR
STARTCHAR 0025
ENCODING 37
SWIDTH 978 0
DWIDTH 53 0
BBX 49 56 2 -11
BITMAP
000001C0000000
000007F0000000
00000FF0000000
00000FF8000000
00000FF8000000
00000FF8000000
00007FFF000000
0001FFFFC00000
0007FFFFF00000
001FFFFFF80000
003FFFFFFE0000
007FFFFFFF0000
3EFFFFFFFFBE00
7FFFC7E1FFFF00
FFFF07E07FFF80
FFFE03E03FFF80
FFFC03E01FFF80
FFF803C01FFF80
FFFC03C01FFF00
7FFE01C03FFE00
1FFF01C07FFC00
1FFF81C0FFFC00
1FFFC1C3FFFC00
3FBFF3C7FCFE00
3F83FFFFC0FE00
3F807FFE00FE00
3F801FFC00FE00
3F800FF800FE00
3F800FF800FE00
3F801FFC00FE00
3F807FFF00FE00
3F87FFFFF0FE00
3FBFF3C7FFFC00
1FFFC1C1FFFC00
1FFF81C0FFFC00
3FFF01C07FFE00
7FFE03C03FFF00
FFFC03E01FFF80
FFF803E00FFF80
FFFC03E01FFF80
FFFE07E03FFF80
FFFF07F0FFFF80
7FFFC7F3FFFF00
3CFFFFFFFF9E00
007FFFFFFF0000
003FFFFFFC0000
000FFFFFF80000
0007FFFFE00000
0001FFFFC00000
00003FFE000000
00000FF8000000
00000FF8000000
00000FF0000000
000007F0000000
000003E0000000
00000080000000
ENDCHAR
STARTCHAR 0026
ENCODING 38
SWIDTH 978 0
DWIDTH 53 0
BBX 52 52 0 -9
BITMAP
00000FFF000000
00007FFFF00000
0001FFFFFC0000
0007F800FF0000
001FC0001F8000
003F000007E000
007C000001F000
00F807FF00F800
01E03FFFE07C00
03C0FFFFF03E00
0781FFFFFC1E00
0703FFFFFE0F00
0F07FFFFFF0780
1E0FFFFFFF8380
1C1FFFFFFFC3C0
3C3FFFFFFFC1C0
383F7FFFFFE1E0
387F3FFFFFF0E0
787F9FFFCFF0E0
70FFCFFF9FF0F0
70FFE7FF3FF870
70FFF3FE7FF870
71FFF9FCFFF870
F1FFFCF9FFF870
F1FFFE73FFF870
F1FFFF07FFF870
E1FFFF87FFF870
F1FFFF87FFF870
71FFFF8FFFF870
70FFFFFFFFF870
70FFFFFFFFF870
70FFFFFFFFF870
70FFFFFFFFF0E0
387FFFFFFFF0E0
387FFFFFFFE0E0
3C3FFFFFFFE1C0
1C3FFFFFFFC1C0
1E1FFFFFFF83C0
0E0FFFFFFF8780
0F07FFFFFF0700
0783FFFFFE0F00
03C1FFFFF81E00
03E07FFFF03C00
01F01FFFC07800
00F803FC01F000
007E000003E000
001F80000FC000
000FE0007F8000
0003FF0FFE0000
0000FFFFF80000
00003FFFC00000
000001FC000000
ENDCHAR
STARTCHAR 0027
ENCODING 39
SWIDTH 978 0
DWIDTH 53 0
BBX 52 52 0 -9
BITMAP
0001FFC0000000
000FFFF8000000
003FFFFE000000
007FFFFF800000
00FFFFFFC00000
01FFFFFFE00000
03FFFFFFF00000
07FFFFFFF80000
0FFF003FF80000
1FFC001FFC0000
1FF80C07FE0000
3FF01E03FE0000
3FE03E01FF0000
3FC03E01FF0000
7FC03E00FF0000
7F803E00FF0000
7F803E007F8000
7F87FFF87F8000
7F0FFFFC7F8000
FF1FFFFC7F8000
7F1FFFFC7F8000
7F0FFFFC7F8000
7F803E007F8000
7F803E007F8000
7F803E00FF0000
7FC03E00FF0000
3FC03E01FF0000
3FE03E01FF0000
3FF01E03FE0000
1FF80007FE0000
1FFC001FFE0000
0FFF007FFF0000
07FFFFFFFF8000
03FFFFFFFFC000
01FFFFFFFFE000
00FFFFFFFFF000
007FFFFFFFF800
001FFFFFFFFC00
0007FFFBFFFE00
0001FFC1FFFF00
00000000FFFF80
000000007FFFC0
000000003FFFE0
000000001FFFF0
000000000FFFF0
0000000007FFF0
0000000003FFF0
0000000001FFF0
0000000000FFF0
00000000007FE0
00000000003FC0
00000000001F80
ENDCHAR
STARTCHAR 0028
ENCODING 40
SWIDTH 978 0
DWIDTH 53 0
BBX 52 53 0 -9
BITMAP
00001E00000000
0003FFF0000000
000FFFFC000000
003FFFFF000000
00FFFFFF800000
01FFFFFFC00000
03FFFFFFE00000
07FFFFFFF00000
0FFFC0FFF80000
0FFE003FFC0000
1FFC000FFC0000
1FF00007FE0000
3FE00003FE0000
3FE00001FF0000
7FC00000FF0000
7F800000FF0000
7F8000007F8000
7F8000007F8000
7F0FFFF87F8000
FF1FFFFC7F8000
FF1FFFFC7F8000
FF1FFFFC7F8000
FF0FFFF87F8000
7F8000007F8000
7F8000007F8000
7F800000FF0000
7FC00000FF0000
3FC00001FF0000
3FE00003FE0000
3FF00003FE0000
1FF8000FFE0000
0FFE001FFF0000
0FFF807FFF8000
07FFFFFFFFC000
03FFFFFFFFE000
01FFFFFFFFF000
00FFFFFFFFF800
007FFFFFFFFC00
001FFFFFFFFE00
0007FFF3FFFF00
0000FF81FFFF80
00000000FFFFC0
000000007FFFE0
000000003FFFE0
000000001FFFF0
000000000FFFF0
0000000007FFF0
0000000003FFF0
0000000001FFF0
0000000000FFF0
00000000007FE0
00000000003FC0
00000000001F80
ENDCHAR
STARTCHAR 0029
ENCODING 41
SWIDTH 978 0
DWIDTH 53 0
BBX 51 39 1 -2
BITMAP
3FFFFFFFFFFF00
FFFFFFFFFFFFE0
FFFFFFFFFFFFE0
F80000000003E0
FC0000000007E0
FE000000000FE0
FF000000001FE0
EF800000003EE0
E7C00000007CE0
E3E0000000F8E0
E1F0000001F0E0
E0F8000003E0E0
E07C000007C0E0
E03E00000F80E0
E01F00001F00E0
E00F80003E00E0
E007C0007C00E0
E003E000F800E0
E001F001F000E0
E000F803E000E0
E000FC07E000E0
E001FE0FF000E0
E003FF1FF800E0
E007DFFF7C00E0
E00F8FFC3E00E0
E01F03F81F00E0
E03E00E00F80E0
E07C000007C0E0
E0F8000003E0E0
E1F0000001F0E0
E3E0000000F8E0
E7C00000007CE0
EF800000003EE0
FF000000001FE0
FE000000000FE0
FC0000000007E0
FFFFFFFFFFFFE0
FFFFFFFFFFFFE0
FFFFFFFFFFFFE0
ENDCHAR
STARTCHAR 002A
ENCODING 42
SWIDTH 978 0
DWIDTH 53 0
BBX 45 56 4 -11
BITMAP
00000F000000
00001F800000
00001FC00000
00001FC00000
00001FC00000
00001FC00000
00001FC00000
00001FC00000
00001FC00000
00001FC00000
00001FC00000
00001FC00000
00001FC00000
00001FC00000
00701FC0E000
00FC1FC3F000
00FF1FCFF000
00FFDFFFF000
007FFFFFE000
003FFFFFC000
001FFFFF8000
000FFFFF0000
3FE7FFFEFFE0
3FF3FFFDFFE0
3FF9FFFBFFE0
9FFCFFF7FFC8
EFFE7FEFFFB8
F7FF3FDFFF78
FBFF9FBFFEF8
FDFFCF7FFDF8
FEFFE4FFFBF8
FF7FFFFFF7F8
FFBFFFFFEFF8
FFDFFFFFDFF8
FFEFFFFFBFF8
FFF7FFFF7FF8
FFFBFFFEFFF8
FFFDFFFDFFF8
FFFEFFFBFFF8
FFFE7FF3FFF8
FFFD3FE5FFF8
FFFB9FDEFFF8
FFF7C73F7FF8
FFEFE07FBFF8
FFDFFFFFDFF8
FFBFFFFFEFF8
FF7FFFFFF7F8
FEFFFFFFFBF8
FDFFFFFFFDF8
FBFFFFFFFEF8
F7FFFFFFFF78
EFFFFFFFFFB8
DFFFFFFFFFD8
3FFFFFFFFFE0
3FFFFFFFFFE0
3FFFFFFFFFC0
ENDCHAR
STARTCHAR 002B
ENCODING 43
SWIDTH 978 0
DWIDTH 53 0
BBX 51 52 1 -9
BITMAP
FFFFFFFFFFFFE0
FFFFFFFFFFFFE0
FFFFFFFFFFFFE0
FFFFFFFFFFFFE0
FFFFFFFFFFFFE0
FFFFFFFFFFFFE0
FFFFFFFFFFFFE0
F8007FFFC007E0
F800FFFFE007E0
F801FFFFF007E0
FC03FFFFF807E0
FC01FFFFF007E0
FC00FFFFE007E0
FC007FFFC007E0
FC003FFF8007E0
FC403FFF8047E0
FCE07FFFC0E7E0
FDF0FFFFE1F7E0
FFF9FFFFF3FFE0
FFFFFFFFFFFFE0
FFFFFFFFFFFFE0
FFFFFFFFFFFFE0
FFFFFFFFFFFFE0
FFFFFFFFFFFFE0
FFFFFFFFFFFFE0
FFFFFFFFFFFFE0
FFFFFFFFFFFFE0
FFFFFFFFFFFFE0
FFFFFFFFFFFFE0
FFFFFFFFFFFFE0
FFFFFFFFFFFFE0
FFFFFFFFFFFFE0
FFF9FFFFF3FFE0
FFF0FFFFE1F7E0
FDE07FFFC0E7E0
FCC07FFF8047E0
FC003FFF0007E0
FC003FFF8007E0
FC007FFFC007E0
FC01FFFFE007E0
FC03FFFFF007E0
F803FFFFF807E0
F801FFFFE007E0
F800FFFFC007E0
F803FFFFF807E0
FFFFFFFFFFFFE0
FFFFFFFFFFFFE0
FFFFFFFFFFFFE0
FFFFFFFFFFFFE0
FFFFFFFFFFFFE0
FFFFFFFFFFFFE0
FFFFFFFFFFFFE0
ENDCHAR
STARTCHAR 002C
ENCODING 44
SWIDTH 978 0
DWIDTH 53 0
BBX 52 52 0 -9
BITMAP
0000000000F000
000000003FF800
00000007FFFC00
0000000FFFFE00
0000001FFFFF00
0000003FFFFF80
0000007FFFFFC0
000000FFFFFFE0
000001FFFF9FF0
000003FFFF0FF0
000007FFFE07F0
00000FFFFE0FF0
00001FFFFF1FF0
00003FFFFFBFF0
00007FFFFFFFE0
0000FFFFFFFFE0
0001FFFFFFFFE0
0003FFFFFFFFE0
0007FFFFFFFFE0
000FFFFFFFFFE0
001FFFFFFFFFC0
003FFFFFFFFFC0
007E7FFFFFFFC0
00FC3FFFFFFF80
01FE1FFFFFFF00
03FF0FFFFFFE00
07E787FFFFFC00
0FC3C3FFFFF800
1FE1E1FFFFF000
3FF0F0FFFFE000
7FF8787FFFC000
FFFC3C3FFF8000
7FFE1E1FFF0000
3FFF0F0FFE0000
1FFF8787FC0000
0FFFC3C3F80000
07FFE1E3F00000
03FFF0F7E00000
01FFF87FC00000
00FFFC3F800000
007FFE3F000000
003FFF7E000000
001FFFFC000000
000FFFF8000000
0007FFF0000000
0003FFE0000000
0001FFC0000000
0000FF80000000
00007F00000000
00003E00000000
00001C00000000
00000800000000
ENDCHAR
STARTCHAR 002D
ENCODING 45
SWIDTH 978 0
DWIDTH 53 0
BBX 52 52 0 -9
BITMAP
000007FF000000
00007FFFE00000
0001FFFFFC0000
0007FE03FF0000
001FE0003F8000
003F00000FE000
007E000003F000
00F8000000F800
01F00000007C00
03F00000003E00
07F80000301E00
07BC0000700F00
0F1E0000F00780
1E0F0001F00780
1E078003F003C0
3C03C007F003C0
3C01E00FF001E0
3800F01FF001E0
7800001FF000E0
78007FFFF000F0
7000FFFFF000F0
7000FFFFF00070
7000FFFFF00070
F000FFFFF00070
F000FFFFF00070
F000FFFFF00070
F000FFFFF00070
F000FFFFF00070
7000FFFFF00070
7000FFFFF00070
7000FFFFF000F0
7000FFFFF000F0
7800003FF000E0
3800001FF000E0
3800000FF001E0
3C000007F001C0
1C000003F203C0
1E000001F303C0
0F000000F38780
0F00000073CF00
0780000071EF00
03C0000030FE00
03E00000007C00
01F0000000F800
00FC000001F000
007E000007E000
001F80000FC000
000FF0007F8000
0003FFFFFE0000
0000FFFFF80000
00003FFFC00000
000003F8000000
ENDCHAR
STARTCHAR 002E
ENCODING 46
SWIDTH 978 0
DWIDTH 53 0
BBX 45 56 4 -11
BITMAP
0FFFFFFFFFC0
1FFFFFFFFFE0
1E00000000E0
1C00000000E0
1C00000000E0
1C00000000E0
1C00000000E0
1C00000000E0
1C00000000E0
1C00000000E0
1C00000000E0
1C00000000E0
1C00000000E0
1C00000000E0
1C00000000E0
1C00000000E0
1C00000000E0
1C00000000E0
1C00000000E0
1C00000000E0
1C00000000E0
1C00000000E0
1C00000000E0
1C00000000E0
1C00000000E0
1C00000000E0
1E00000000E0
1FFFFFFFFFE0
0FFFFFFFFFC0
000000000000
000000000000
0FFFFFFFFFC0
1FFFFFFFFFE0
1FFFFFFFFFE0
1FFFFFFFFFE0
1FFFFFF803E0
1FFFFFF803E0
1FFFFFFFFFE0
1FFFFFFFFFE0
1FFFFFFFFFE0
1FFFFFFFFFE0
0FFFFFFFFFC0
000003000000
000003000000
000003000000
000003000000
000003000000
000003000000
000003000000
0003FFFE0000
0003FFFE0000
0003FFFE0000
FFFFFFFFFFF8
FFFFFFFFFFF8
0003FFFE0000
0001FFFE0000
ENDCHAR
STARTCHAR 002F
ENCODING 47
SWIDTH 978 0
DWIDTH 53 0
BBX 52 54 0 -10
BITMAP
000000F8000000
030007FE000E00
03800FFF800E00
03C01FFFC01E00
03C03FFFE01C00
01C03FFFE03C00
01E07FFFF03C00
41E07FFFF07820
70F07FFFF07870
70F07FFFF07870
70F07FFFF0F0F0
78F87FFFF0F0E0
78787FFFF0F0E0
38787FFFF0F1E0
3C787FFFF1F1E0
3C787FFFF1E1E0
3C7C7FFFF1E1E0
3C7C7FFFF1E1C0
3C7C7FFFF1E3C0
3C3C7FFFF1E3C0
3C3C7FFFF1E3C0
3E3C7FFFF1E3C0
3E3C7FFFF1E3C0
3C3C7FFFF1E3C0
3C3C7FFFF1E3C0
3C7C7FFFF1E3C0
3C7C7FFFF1E1C0
3C7C7FFFF1E1E0
3C787FFFF1E1E0
3C787FFFF1F1E0
38787FFFF0F1E0
78787FFFF0F0E0
78787FFFF0F0E0
70F07FFFF0F0F0
70F07FFFF07870
F0F07FFFE07870
E1E03FFFE07870
01E01FFFC03C00
01C00FFF803C00
03C007FF001C00
03C007FE001E00
038007FE000E00
038007FE000E00
000007FE000000
000007FE000000
000007FE000000
000007FE000000
000007FE000000
000007FE000000
000007FE000000
000007FE000000
000003FE000000
000003FC000000
000000F8000000
ENDCHAR
STARTCHAR 0030
ENCODING 48
SWIDTH 978 0
DWIDTH 53 0
BBX 52 52 0 -9
BITMAP
000007FF000000
00007FFFF00000
0001FFFFFC0000
0007FFFFFF0000
000FFFFFFF8000
003FFFFFFFC000
007FFFFFFFF000
00FFFFFFFFF800
01FFFFFFFFFC00
03FE7FFFF3FE00
07FC7FFFE1FE00
07F03FFFE0FF00
0FE01FFFC07F80
1FE01FFF803F80
1FC00FFF801FC0
3F800FFF001FC0
3F8007FF000FE0
3F0003FE000FE0
7F0003FE0007E0
7E0001FC0007F0
7E0003FE0003F0
7E0007FF0003F0
7E000F8F0003F0
7E000E078003F0
FE001E038003F0
FC001C038003F0
FFFFFC03FFFFF0
FFFFFE03FFFFF0
7FFFFE07FFFFF0
7FFFFF8FFFFFF0
7FFFFFFFFFFFF0
7FFFFFFFFFFFF0
7FFFFCF3FFFFF0
7FFFFC01FFFFE0
3FFFF801FFFFE0
3FFFF800FFFFE0
1FFFF000FFFFC0
1FFFF0007FFFC0
0FFFE0003FFF80
0FFFC0003FFF80
07FFC0001FFF00
03FF80001FFE00
03FF80000FFC00
01FF80001FF800
00FFE0007FF000
007FFE07FFE000
003FFFFFFFC000
000FFFFFFF8000
0007FFFFFE0000
0001FFFFF80000
00003FFFE00000
000001FC000000
ENDCHAR
STARTCHAR 0031
ENCODING 49
SWIDTH 978 0
DWIDTH 53 0
BBX 51 56 1 -11
BITMAP
000007FC000000
00000FFE000000
00000FFE000000
00000FFE000000
00000FFE000000
00000FFE000000
00000FFE000000
00030FFE300000
000F0FFE3C0000
001F0FFE3F0000
003F0FFE3F8000
00FF0FFE3FC000
01FF0FFE3FE000
03FF0FFE3FF000
03FF0FFE3FF800
07FE0FFE1FFC00
0FFC0FFE0FFE00
1FF80FFE03FE00
1FF00FFE01FF00
3FE00FFE01FF00
3FC00FFE00FF80
3FC00FFE007F80
7F800FFE007F80
7F800FFE003FC0
7F800FFE003FC0
FF000FFE003FC0
FF000FFE001FC0
FF000FFE001FC0
FF000FFE001FE0
FF000FFE001FE0
FF000FFE001FE0
FF000000001FE0
FF000000001FC0
FF000000001FC0
FF000000001FC0
7F000000003FC0
7F800000003FC0
7F800000007FC0
7FC00000007F80
3FC0000000FF80
3FE0000000FF00
1FF0000001FF00
1FF0000003FE00
0FF8000007FE00
0FFE00000FFC00
07FF00003FFC00
03FFC000FFF800
01FFF803FFF000
00FFFFFFFFE000
007FFFFFFFC000
003FFFFFFF8000
001FFFFFFE0000
0007FFFFF80000
0001FFFFE00000
00003FFF800000
000000D0000000
ENDCHAR
STARTCHAR 0032
ENCODING 50
SWIDTH 978 0
DWIDTH 53 0
BBX 49 56 2 -11
BITMAP
000003C0000000
000007F0000000
00000FF0000000
00000FF8000000
00000FF8000000
00000FF8000000
00000FF8000000
00000FF8000000
00000FF0000000
00000FF0000000
00000FF0000000
000007F0000000
7E0007F0003E00
7F8007E000FF00
FFC007E001FF80
FFE003E007FF80
FFF003C00FFF80
FFF803C01FFF80
FFFC03C03FFF00
7FFE01C07FFE00
1FFF01C0FFFC00
0FFF8181FFF000
01FFC1C3FFC000
003FE3C7FC0000
0003FFFFC00000
00007FFE000000
00001FFC000000
00000FF8000000
00001FF8000000
00001FFC000000
00007FFF000000
0007FFFFF00000
003FF3C7FF0000
01FFC1C1FFE000
0FFF81C0FFF800
3FFF01C07FFE00
7FFE03C03FFF00
FFFC03E01FFF80
FFF803E00FFF80
FFF003E007FF80
FFE007E003FF80
FF8007E001FF80
7F0007F0007F00
3C0007F0001E00
00000FF0000000
00000FF0000000
00000FF0000000
00000FF8000000
00000FF8000000
00000FF8000000
00000FF8000000
00000FF8000000
00000FF0000000
000007F0000000
000007E0000000
00000180000000
ENDCHAR
STARTCHAR 0033
ENCODING 51
SWIDTH 978 0
DWIDTH 53 0
BBX 52 49 0 -7
BITMAP
00000020000000
00000020000000
00000060000000
00000070000000
000000F0000000
000000F8000000
000001F8000000
000001FC000000
000003FC000000
000003FE000000
000007FE000000
000007FF000000
00000FFF000000
00000FFF800000
00001FFF800000
00001FFFC00000
00003FFFE00000
001FFFFFFFC000
0FFFFFFFFFFF80
FFFFFFFFFFFFF0
3FFFFFFFFFFFE0
1FFFFFFFFFFFC0
0FFFFFFFFFFF80
07FFFFFFFFFF00
03FFFFFFFFFE00
01FFFFFFFFFC00
00FFFFFFFFF800
007FFFFFFFE000
003FFFFFFFC000
001FFFFFFF8000
000FFFFFFF0000
0007FFFFFE0000
0007FFFFFE0000
0007FFFFFF0000
0007FFFFFF0000
0007FFFFFF0000
0007FFFFFF0000
000FFFFFFF0000
000FFFFFFF0000
000FFFFFFF8000
000FFFFFFF8000
000FFF9FFF8000
000FFF07FF8000
001FFC01FF8000
001FF0007F8000
001FC0001FC000
001F000007C000
001C000001C000
00300000004000
ENDCHAR
STARTCHAR 0034
ENCODING 52
SWIDTH 978 0
DWIDTH 53 0
BBX 52 38 0 -2
BITMAP
1FFFFFFFFFFFC0
1FFFFFFFFFFFC0
0FFFFFFFFFFF80
47FFFFFFFFFF20
F3FFFFFFFFFE70
F9FFFFFFFFFCF0
FCFFFFFFFFF9F0
FE7FFFFFFFF3F0
FF3FFFFFFFE7F0
FF9FFFFFFFCFF0
FFCFFFFFFF9FF0
FFE7FFFFFF3FF0
FFF3FFFFFE7FF0
FFF9FFFFFCFFF0
FFFCFFFFF9FFF0
FFFE7FFFF3FFF0
FFFF3FFFE7FFF0
FFFF9FFFCFFFF0
FFFFCFFF9FFFF0
FFFFC7FF1FFFF0
FFFF83FE0FFFF0
FFFF71FCE7FFF0
FFFEF8F9F3FFF0
FFFDFC23F9FFF0
FFFBFF07FCFFF0
FFF7FFFFFE7FF0
FFEFFFFFFF3FF0
FFDFFFFFFF9FF0
FFBFFFFFFFCFF0
FF7FFFFFFFE7F0
FEFFFFFFFFF3F0
FDFFFFFFFFF9F0
FBFFFFFFFFFCF0
F7FFFFFFFFFE70
6FFFFFFFFFFF30
1FFFFFFFFFFF80
1FFFFFFFFFFFC0
1FFFFFFFFFFF80
ENDCHAR
STARTCHAR 0035
ENCODING 53
SWIDTH 978 0
DWIDTH 53 0
BBX 52 41 0 -5
BITMAP
000000701F8000
000000F83FC000
000003DC3FC000
0000070F3FC000
00001E03BFC000
00003871FFC000
0000F1F87FC000
0001E3FC3FC000
00078FFF1FC000
000F1FFF87C000
003C3FFFE3C000
0078FFFFF0F000
01E1FFFFFC7800
03C7FFFFFE1C00
070FFFFFFF8F00
1E3FFFFFFFC380
387FFFFFFFE1E0
F0FFFFFFFFF070
40FFFFFFFFF030
00FFFFFFFFF000
00FFFFFFFFF000
00FFFFFFFFF000
00FFFFFFFFF000
00FFFC01FFF000
00FFFC01FFF000
00FFFC01FFF000
00FFFC01FFF000
00FFFC01FFF000
00FFFC01FFF000
00FFFC01FFF000
00FFFC01FFF000
00FFFC01FFF000
00FFFC01FFF000
00FFFC01FFF000
00FFFC01FFF000
00FFFC01FFF000
00FFFC01FFF000
00FFFC01FFF000
00FFFC01FFF000
007FFC01FFF000
001FFC01FFC000
ENDCHAR
STARTCHAR 0036
ENCODING 54
SWIDTH 978 0
DWIDTH 53 0
BBX 52 54 0 -10
BITMAP
007C000007C000
00FE00000FE000
01FE00001FF000
01FF00001FF000
01FF00001FF000
01FE00001FF000
01FE00000FE000
00FC000007C000
00300000010000
000000000FE000
1FFFE0007FFC00
3FFFF000FFFE00
7FFFF801FFFF00
7FFFF801FFFF00
7FFFFC03FFFF80
FFFFFC03FFFF80
FFFFFC03DFF780
F7FFBC03FFFB80
F7FFBC07BFFBC0
F7FFBC07BFFBC0
F7FFBC07BFFBC0
F7FFBC0F7FFDE0
F7FFBC0F7FFDE0
F7FFBC0F7FFDE0
F7FFBC0FFFFEE0
F7FFBC1EFFFEF0
F7FFBC1EFFFEF0
F7FFBC1EFFFEF0
F7FFBC1DFFFF70
77FFBC01FFFF00
77FFB801FFFF00
07EF8003FFFF80
07EF8003FFFF80
07EF8003FFFF80
07EF8003FFFF80
07EF8007FFFFC0
07EF8007FFFFC0
07EF80001EF000
07EF80001EF000
07EF80001EF000
07EF80001EF000
07EF80001EF000
07EF80001EF000
07EF80001EF000
07EF80001EF000
07EF80001EF000
07EF80001EF000
07EF80001EF000
07EF80001EF000
07EF80001EF000
07EF80001EF000
07EF80001EF000
03CF80001EF000
03C700001E7000
ENDCHAR
STARTCHAR 0037
ENCODING 55
SWIDTH 978 0
DWIDTH 53 0
BBX 52 40 0 -3
BITMAP
0000FF80000000
0007FFF0000000
001FFFFC000000
007FC1FF000000
00FF00FF800000
01FE007FC00000
03FE003FE00000
07FE003FF00000
0FFE003FF80000
1FFE003FF80000
1FFE003FFC0000
3FFE007FFC0000
3FFF00FFFE0000
7FFF81FFFE0000
7E0FFFF03E0000
7803FFE01F0000
7803FFC00F0000
7001FFC0070000
F001FFC0070000
F001FFC0070000
F001FFC0070000
7001FFC0070000
7803FFC00F0000
7803FFE01F0000
7E0FFFF03F0000
7FFF81FFFE0000
3FFF00FFFE0000
3FFE007FFE0000
3FFE003FFC0000
1FFE003FFC0000
0FFE003FF80000
0FFE003FF00000
07FE003FF80020
03FF007FF800F0
01FF00FFFC03F0
00FFC1FFBF3FF0
007FFFFE1FFFC0
001FFFFC0FFE00
0007FFE003F000
00003E00000000
ENDCHAR
STARTCHAR 0038
ENCODING 56
SWIDTH 978 0
DWIDTH 53 0
BBX 41 56 6 -11
BITMAP
3FFFFFFFFC00
7FFFFFFFFF00
FFFFFFFFFF80
FFFFFFFFFF80
FFFFFFFFFF80
F00000000F80
F00000000780
F00000000780
F00000000780
F00000000780
F00000000780
F00000000780
F00000000780
F00000000780
F80000000F80
FFFFFFFFFF80
FFFFFFFFFF80
FFFFFFFFFF80
FFFFFFFFFF80
F81F81FC0F80
F80F80F80F80
F80F80F80F80
F80F80F80F80
F80F80F80F80
F80F80F80F80
F80F80F80F80
FFFFFFFFFF80
FFFFFFFFFF80
FFFFFFFFFF80
FFFFFFFFFF80
FFFFFFFFFF80
F81F80F80F80
F80F80F80F80
F80F80F80F80
F80F80F80F80
F80F80F80F80
F80F80F80F80
F80F80F80F80
FFFFFFFFFF80
FFFFFFFFFF80
FFFFFFFFFF80
FFFFFFFFFF80
FFFFFFFFFF80
F80F80F80F80
F80F80F80F80
F80F80F80F80
F80F80F80F80
F80F80F80F80
F80F80F80F80
F80F80F80F80
FFFFFFFFFF80
FFFFFFFFFF80
FFFFFFFFFF80
FFFFFFFFFF80
7FFFFFFFFF00
1FFFFFFFFC00
ENDCHAR
STARTCHAR 0039
ENCODING 57
SWIDTH 978 0
DWIDTH 53 0
BBX 52 50 0 -8
BITMAP
70000000000000
F8000000000000
7C000000000000
7E000000000000
1F000000000000
0F800000000000
07C00000000000
03C1FFFFFFFFF0
03E1FFFFFFFFF0
01E0FFFFFFFFE0
01F0FFFFFFFFE0
00F0FFFFFFFFC0
00F0FFFFFFFFC0
0078FFFFFFFF80
0078FFFFFFFF80
00787FFFFFFF00
003C7FFFFFFF00
003C7FFFFFFE00
003C7FFFFFFE00
003C7FFFFFFC00
001E7FFFFFFC00
001E3FFFFFFC00
001E3FFFFFF800
001E3FFFFFF800
001E3FFFFFF000
000E3FFFFFF000
000F0000000000
000F0000000000
000F0000000000
000F0000000000
000F0000000000
000F0000000000
000FFFFFFFFF00
000FFFFFFFFF80
0007FFFFFFFF80
0007FFFFFFFF00
00000000000000
00000000000000
00000000000000
0003C00000F800
000FF00001FE00
000FF80003FE00
001FF80003FF00
001FF80007FF00
001FFC0007FF00
001FF80007FF00
001FF80003FF00
000FF80003FE00
0007F00001FC00
0003C000007000
ENDCHAR
STARTCHAR 003A
ENCODING 58
SWIDTH 978 0
DWIDTH 53 0
BBX 52 52 0 -8
BITMAP
000000007F8000
00000001FFF000
00000007FFF800
0000001FFFFE00
0000003FFFFF00
0000007FFFFF80
0000007FFF9F80
000000FFFE07C0
000000FFFC07E0
000001FFFC03E0
000001FFFC03E0
000003FFFC03F0
000003FFFC07F0
000003FFFE07F0
000003FFFF9FF0
000003FFFFFFF0
000003FFFFFFF0
000003FFFFFFF0
000003FFFFFFF0
000001FFFFFFF0
000001FFFFFFE0
000008FFFFFFE0
000018FFFFFFC0
00003C7FFFFFC0
00007C7FFFFF80
0000FE3FFFFF00
0001FF1FFFFE00
0003FF87FFFC00
0007FFC3FFF000
000FFFE07F8000
001FFFF8000000
003FFFFE000000
007FFFFC000000
00FFFFC0000000
01FFFFC0000000
03FFFFC0000000
07FFFC00000000
0FFFFC00000000
1FFFFC00000000
3FFFFC00000000
3FFE0000000000
7FFE0000000000
7FFE0000000000
FFFE0000000000
FFFE0000000000
FFFE0000000000
7FE00000000000
7FE00000000000
7FE00000000000
3FE00000000000
1FE00000000000
07C00000000000
ENDCHAR
STARTCHAR 003B
ENCODING 59
SWIDTH 978 0
DWIDTH 53 0
BBX 52 52 0 -9
BITMAP
000000F0000000
000000F0000000
000000F0000000
000000F0000000
000000F0000000
000000F0000000
000000F0000000
000000F0000000
000000F0000000
000000F0000000
000000F0000000
000000F0000000
000000F0000000
000000F0000000
000000F0000000
000000F0000000
000000F0000000
000000F0000000
000000F0000000
000000F0000000
000000F0000000
000000F0000000
000000F0000000
000000F0000000
FFFFFFFFFFFFF0
FFFFFFFFFFFFF0
FFFFFFFFFFFFF0
FFFFFFFFFFFFF0
000000F0000000
000000F0000000
000000F0000000
000000F0000000
000000F0000000
000000F0000000
000000F0000000
000000F0000000
000000F0000000
000000F0000000
000000F0000000
000000F0000000
000000F0000000
000000F0000000
000000F0000000
000000F0000000
000000F0000000
000000F0000000
000000F0000000
000000F0000000
000000F0000000
000000F0000000
000000F0000000
000000F0000000
ENDCHAR
STARTCHAR 003C
ENCODING 60
SWIDTH 978 0
DWIDTH 53 0
BBX 52 42 0 -4
BITMAP
00000070000000
00000070000000
000000F8000000
000001FC000000
000001FC000000
000003FE000000
000003FE000000
000007FF000000
00000FDF800000
00000F8F800000
00001F8FC00000
00001F07C00000
00003E07E00000
00007E03F00000
00007C01F00000
0000FC01F80000
0000F800F80000
0001F000FC0000
0003F0007C0000
0003E0003E0000
0007E0003F0000
0007C0001F0000
000F80001F8000
001F80000F8000
001F000007C000
003F000007E000
003E000003E000
007C000003F000
00FC000001F000
00F8000000F800
01F8000000FC00
01F00000007C00
03E00000007E00
07E00000003E00
07C00000001F00
0FC00000001F80
0F800000000F80
1F000000000FC0
3F0000000007C0
3E0000000003E0
7E0000000003F0
FC0000000001F0
ENDCHAR
STARTCHAR 003D
ENCODING 61
SWIDTH 978 0
DWIDTH 53 0
BBX 52 52 0 -9
BITMAP
000007FF000000
00007FFFE00000
0001FC01FC0000
0007C0003F0000
001F0000078000
003C000001E000
0070000000F000
00E00000007800
01C00000001C00
03800000000E00
070FFFFE000E00
0603FEFF800700
0E01F80FC00380
1C01F807E00180
1801F803F001C0
3801F803F000C0
3801F801F800E0
3001F801F800E0
7001F801F80060
6001F801F80060
6001F801F80070
6001F803F00030
6001F807E00030
E001F80FC00030
E001F83F800030
E001FFFE000030
E001FFF8000030
E001F8FC000030
E001F87C000030
6001F87E000030
6001F83F000070
6001F81F800070
7001F80F800060
3001F80FC00060
3001F807E000E0
3801F803E000C0
1801F801F001C0
1C01F801F801C0
0C01F800FC0380
0E01F8007E0300
071FFF807F8700
031FFF803F8E00
03800000001C00
01C00000003800
00F00000007000
0078000000E000
001E000003C000
000F80000F8000
0003F0007E0000
0000FFFFF80000
00003FFFC00000
000003FC000000
ENDCHAR
STARTCHAR 003E
ENCODING 62
SWIDTH 978 0
DWIDTH 53 0
BBX 52 52 0 -9
BITMAP
000007FF000000
00007FFFE00000
0001FC03FC0000
0007C0003F0000
001F0000078000
003C000003E000
0078000000F000
00E00000007800
01C00000001C00
038000FE020E00
07000FFFE60E00
06003E00FE0700
0E0078003E0380
1C01F0001E0180
1C03E0000F01C0
3807C0000700C0
380780000700E0
300F80000300E0
701F8000030060
601F0000000060
603F0000000070
603F0000000030
603F0000000030
E03F0000000030
E03F0000000030
E03F0000000030
E03F0000000030
E03F0000000030
E03F0000000030
603F0000000030
603F0000000030
603F0000000070
701F8000000060
701F8000000060
300FC0000180E0
3807C0000300C0
1807E0000601C0
1C03F0000C01C0
0C01FC00380380
0E007F00F00300
07003FFFC00700
030007FF000E00
03800000001C00
01C00000003800
00F00000007000
0078000000E000
001E000003C000
000F80000F8000
0003F0007E0000
0000FFDFF80000
00003FFFC00000
000003FC000000
ENDCHAR
STARTCHAR 003F
ENCODING 63
SWIDTH 978 0
DWIDTH 53 0
BBX 52 52 0 -9
BITMAP
000007FF000000
00003FFFE00000
0001FFFFFC0000
0007FFFFFE0000
000FFFFFFF8000
003FFFFFFFC000
007FF800FFE000
00FFC0001FF800
01FF000007FC00
03FE000003FC00
07F8000001FE00
07F0000000FF00
0FE00000007F80
0FE00000003F80
1FC00000001FC0
1F800000000FC0
3F000000000FE0
3F0000000007E0
7F0000000007E0
7E0000000007E0
7E0000000003F0
7E0000000003F0
7C0000000003F0
7C0000000003F0
FC0000000003F0
FC0000000003F0
FC0000000003F0
FC0000000003F0
7C0000000003F0
7E0000000003F0
7E0000000003F0
7E0000000003F0
7E0000000007E0
3F0000000007E0
3F0000000007E0
3F800000000FC0
1F800000001FC0
1FC00000001FC0
0FE00000003F80
0FE00000007F00
07F0000000FF00
03FC000001FE00
03FE000003FC00
01FF00000FF800
00FFE0003FF000
007FFC01FFE000
001FFFFFFFC000
000FFFFFFF8000
0003FFFFFE0000
0001FFFFF80000
00003FFFE00000
000001FA000000
ENDCHAR
STARTCHAR 0040
ENCODING 64
SWIDTH 978 0
DWIDTH 53 0
BBX 52 52 0 -9
BITMAP
00000020000000
00000060000000
00000070000000
000000F0000000
000000F8000000
000001F8000000
000001FC000000
000003FC000000
000003FE000000
000007FE000000
000007FF000000
00000FFF000000
00000FFF800000
00001FFF800000
00001FFFC00000
00003FFFC00000
00003FFFE00000
00007FFFE00000
00007FFFF00000
0000FFFFF00000
0000FFFFF80000
0001FFFFF80000
0001FFFFFC0000
0003FFFFFC0000
0003FFFFFE0000
0007FFFFFE0000
0007FFFFFF0000
000FFFFFFF0000
000FFFFFFF8000
001FFFFFFF8000
001FFFFFFFC000
003FFFFFFFC000
003FFFFFFFE000
007FFFFFFFE000
007FFFFFFFF000
00FFFFFFFFF000
00FFFFFFFFF800
01FFFFFFFFF800
01FFFFFFFFFC00
03FFFFFFFFFC00
03FFFFFFFFFE00
07FFFFFFFFFE00
07FFFFFFFFFF00
0FFFFFFFFFFF00
0FFFFFFFFFFF80
1FFFFFFFFFFF80
1FFFFFFFFFFFC0
3FFFFFFFFFFFC0
3FFFFFFFFFFFE0
7FFFFFFFFFFFE0
7FFFFFFFFFFFF0
FFFFFFFFFFFFF0
ENDCHAR
STARTCHAR 0041
ENCODING 65
SWIDTH 978 0
DWIDTH 53 0
BBX 51 50 1 -8
BITMAP
80002000000000
C0003000000000
E0003C00000000
F0003E00000000
FC003F00000000
FE003FC0000000
FF003FE0000000
FFC03FF0000000
FFE03FFC000000
FFF03FFE000000
FFFC3FFF000000
FFFE3FFFC00000
FFFF1FFFE00000
FFFFCFFFF00000
FFFFE3FFFC0000
FFFFF1FFFE0000
FFFFFCFFFF0000
FFFFFE7FFFC000
FFFFFF1FFFE000
FFFFFFCFFFF000
FFFFFFE7FFFC00
FFFFFFF1FFFE00
FFFFFFFCFFFF00
FFFFFFFE7FFFC0
FFFFFFFF9FFFE0
FFFFFFFF3FFFC0
FFFFFFFC7FFF80
FFFFFFF8FFFF00
FFFFFFF3FFFC00
FFFFFFC7FFF800
FFFFFF8FFFF000
FFFFFF3FFFC000
FFFFFC7FFF8000
FFFFF8FFFF0000
FFFFF3FFFC0000
FFFFC7FFF80000
FFFF8FFFF00000
FFFF3FFFC00000
FFFC3FFF800000
FFF83FFF000000
FFF03FFC000000
FFC03FF8000000
FF803FF0000000
FF003FC0000000
FC003F80000000
F8003F00000000
F0003C00000000
C0003800000000
80003000000000
80002000000000
ENDCHAR
STARTCHAR 0042
ENCODING 66
SWIDTH 978 0
DWIDTH 53 0
BBX 45 55 4 -10
BITMAP
800000007FF8
C00000007FF8
E00000007FF8
F80000007FF8
FE0000007FF8
FF0000007FF8
FFC000007FF8
FFF000007FF8
FFF800007FF8
FFFE00007FF8
FFFF80007FF8
FFFFC0007FF8
FFFFF0007FF8
FFFFFC007FF8
FFFFFE007FF8
FFFFFF807FF8
FFFFFFC07FF8
FFFFFFF07FF8
FFFFFFFC7FF8
FFFFFFFE7FF8
FFFFFFFFFFF8
FFFFFFFFFFF8
FFFFFFFFFFF8
FFFFFFFFFFF8
FFFFFFFFFFF8
FFFFFFFFFFF8
FFFFFFFFFFF8
FFFFFFFFFFF8
FFFFFFFFFFF8
FFFFFFFFFFF8
FFFFFFFFFFF8
FFFFFFFFFFF8
FFFFFFFFFFF8
FFFFFFFFFFF8
FFFFFFFFFFF8
FFFFFFFFFFF8
FFFFFFFE7FF8
FFFFFFF87FF8
FFFFFFF07FF8
FFFFFFC07FF8
FFFFFF007FF8
FFFFFE007FF8
FFFFF8007FF8
FFFFE0007FF8
FFFFC0007FF8
FFFF00007FF8
FFFC00007FF8
FFF800007FF8
FFE000007FF8
FFC000007FF8
FF0000007FF8
FC0000007FF8
F80000007FF8
E00000007FF8
800000007FF8
ENDCHAR
STARTCHAR 0043
ENCODING 67
SWIDTH 978 0
DWIDTH 53 0
BBX 40 56 6 -11
BITMAP
FFFF81FFFF
FFFF81FFFF
FFFF81FFFF
FFFF81FFFF
FFFF81FFFF
FFFF81FFFF
FFFF81FFFF
FFFF81FFFF
FFFF81FFFF
FFFF81FFFF
FFFF81FFFF
FFFF81FFFF
FFFF81FFFF
FFFF81FFFF
FFFF81FFFF
FFFF81FFFF
FFFF81FFFF
FFFF81FFFF
FFFF81FFFF
FFFF81FFFF
FFFF81FFFF
FFFF81FFFF
FFFF81FFFF
FFFF81FFFF
FFFF81FFFF
FFFF81FFFF
FFFF81FFFF
FFFF81FFFF
FFFF81FFFF
FFFF81FFFF
FFFF81FFFF
FFFF81FFFF
FFFF81FFFF
FFFF81FFFF
FFFF81FFFF
FFFF81FFFF
FFFF81FFFF
FFFF81FFFF
FFFF81FFFF
FFFF81FFFF
FFFF81FFFF
FFFF81FFFF
FFFF81FFFF
FFFF81FFFF
FFFF81FFFF
FFFF81FFFF
FFFF81FFFF
FFFF81FFFF
FFFF81FFFF
FFFF81FFFF
FFFF81FFFF
FFFF81FFFF
FFFF81FFFF
FFFF81FFFF
FFFF81FFFF
FFFF81FFFF
ENDCHAR
STARTCHAR 0044
ENCODING 68
SWIDTH 978 0
DWIDTH 53 0
BBX 45 55 4 -10
BITMAP
800000000000
C00000000000
E00000000000
F80000000000
FE0000000000
FF0000000000
FFC000000000
FFE000000000
FFF800000000
FFFE00000000
FFFF00000000
FFFFC0000000
FFFFF0000000
FFFFF8000000
FFFFFE000000
FFFFFF800000
FFFFFFC00000
FFFFFFF00000
FFFFFFFC0000
FFFFFFFE0000
FFFFFFFF8000
FFFFFFFFC000
FFFFFFFFF000
FFFFFFFFFC00
FFFFFFFFFE00
FFFFFFFFFF80
FFFFFFFFFFE0
FFFFFFFFFFF8
FFFFFFFFFFF0
FFFFFFFFFFC0
FFFFFFFFFF80
FFFFFFFFFE00
FFFFFFFFF800
FFFFFFFFF000
FFFFFFFFC000
FFFFFFFF8000
FFFFFFFE0000
FFFFFFF80000
FFFFFFF00000
FFFFFFC00000
FFFFFF000000
FFFFFE000000
FFFFF8000000
FFFFE0000000
FFFFC0000000
FFFF00000000
FFFC00000000
FFF800000000
FFE000000000
FFC000000000
FF0000000000
FC0000000000
F80000000000
E00000000000
800000000000
ENDCHAR
STARTCHAR 0045
ENCODING 69
SWIDTH 978 0
DWIDTH 53 0
BBX 52 52 0 -9
BITMAP
000007FF000000
00003FFFE00000
0001FFFFFC0000
0007FFFFFE0000
000FFFFFFF8000
003FFFFFFFC000
007FFFFFFFF000
00FFFFFFFFF800
01FFFFFFFFFC00
03FFFFFFFFFC00
03FFFFFFFFFE00
07FFFFFFFFFF00
0FFFFFFFFFFF80
0FFFFFFFFFFF80
1FFFFF8FFFFFC0
1FFFFC01FFFFC0
3FFFF0007FFFC0
3FFFE0003FFFE0
3FFFC0001FFFE0
7FFF80000FFFE0
7FFF00000FFFF0
7FFF000007FFF0
7FFE000007FFF0
7FFE000003FFF0
7FFE000003FFF0
FFFE000003FFF0
FFFE000003FFF0
7FFE000003FFF0
7FFE000003FFF0
7FFF000007FFF0
7FFF000007FFF0
7FFF00000FFFF0
7FFF80000FFFE0
3FFFC0001FFFE0
3FFFE0003FFFE0
3FFFF0007FFFC0
1FFFFC01FFFFC0
1FFFFFFFFFFF80
0FFFFFFFFFFF80
0FFFFFFFFFFF00
07FFFFFFFFFF00
03FFFFFFFFFE00
01FFFFFFFFFC00
01FFFFFFFFF800
00FFFFFFFFF000
003FFFFFFFE000
001FFFFFFFC000
000FFFFFFF8000
0003FFFFFE0000
0000FFFFF80000
00003FFFC00000
000000F8000000
ENDCHAR
STARTCHAR 0046
ENCODING 70
SWIDTH 978 0
DWIDTH 53 0
BBX 51 52 1 -9
BITMAP
FFFFFFFFFFFFE0
FFFFFFFFFFFFE0
FFFFFFFFFFFFE0
FFFFFFFFFFFFE0
FFFFFFFFFFFFE0
FFFFFFFFFFFFE0
FFFFFFFFFFFFE0
FFFFFFFFFFFFE0
FFFFFFFFFFFFE0
FFFFFFFFFFFFE0
FFFFFFFFFFFFE0
FFFFFFFFFFFFE0
FFFFFFFFFFFFE0
FFFFFFFFFFFFE0
FFFFFFFFFFFFE0
FFFFFFFFFFFFE0
FFFFFFFFFFFFE0
FFFFFFFFFFFFE0
FFFFFFFFFFFFE0
FFFFFFFFFFFFE0
FFFFFFFFFFFFE0
FFFFFFFFFFFFE0
FFFFFFFFFFFFE0
FFFFFFFFFFFFE0
FFFFFFFFFFFFE0
FFFFFFFFFFFFE0
FFFFFFFFFFFFE0
FFFFFFFFFFFFE0
FFFFFFFFFFFFE0
FFFFFFFFFFFFE0
FFFFFFFFFFFFE0
FFFFFFFFFFFFE0
FFFFFFFFFFFFE0
FFFFFFFFFFFFE0
FFFFFFFFFFFFE0
FFFFFFFFFFFFE0
FFFFFFFFFFFFE0
FFFFFFFFFFFFE0
FFFFFFFFFFFFE0
FFFFFFFFFFFFE0
FFFFFFFFFFFFE0
FFFFFFFFFFFFE0
FFFFFFFFFFFFE0
FFFFFFFFFFFFE0
FFFFFFFFFFFFE0
FFFFFFFFFFFFE0
FFFFFFFFFFFFE0
FFFFFFFFFFFFE0
FFFFFFFFFFFFE0
FFFFFFFFFFFFE0
FFFFFFFFFFFFE0
FFFFFFFFFFFFE0
ENDCHAR
STARTCHAR 0047
ENCODING 71
SWIDTH 978 0
DWIDTH 53 0
BBX 45 56 4 -11
BITMAP
FFE000000008
FFE000000018
FFE000000078
FFE0000000F8
FFE0000003F8
FFE000000FF8
FFE000001FF8
FFE000007FF8
FFE00001FFF8
FFE00003FFF8
FFE0000FFFF8
FFE0001FFFF8
FFE0007FFFF8
FFE001FFFFF8
FFE003FFFFF8
FFE00FFFFFF8
FFE03FFFFFF8
FFE07FFFFFF8
FFE1FFFFFFF8
FFE7FFFFFFF8
FFEFFFFFFFF8
FFFFFFFFFFF8
FFFFFFFFFFF8
FFFFFFFFFFF8
FFFFFFFFFFF8
FFFFFFFFFFF8
FFFFFFFFFFF8
FFFFFFFFFFF8
FFFFFFFFFFF8
FFFFFFFFFFF8
FFFFFFFFFFF8
FFFFFFFFFFF8
FFFFFFFFFFF8
FFFFFFFFFFF8
FFFFFFFFFFF8
FFEFFFFFFFF8
FFE3FFFFFFF8
FFE1FFFFFFF8
FFE07FFFFFF8
FFE01FFFFFF8
FFE00FFFFFF8
FFE003FFFFF8
FFE000FFFFF8
FFE0007FFFF8
FFE0001FFFF8
FFE00007FFF8
FFE00003FFF8
FFE00000FFF8
FFE000007FF8
FFE000001FF8
FFE0000007F8
FFE0000003F8
FFE0000000F8
FFE000000038
FFE000000018
FFE000000008
ENDCHAR
STARTCHAR 0048
ENCODING 72
SWIDTH 978 0
DWIDTH 53 0
BBX 52 50 0 -8
BITMAP
00000000400010
00000001C00030
00000003C00070
00000007C001F0
0000001FC003F0
0000003FC007F0
0000007FC01FF0
000001FFC03FF0
000003FFC07FF0
000007FFC1FFF0
00001FFFC3FFF0
00003FFFC7FFF0
00007FFF9FFFF0
0001FFFF3FFFF0
0003FFFC7FFFF0
0007FFF9FFFFF0
000FFFF3FFFFF0
003FFFC7FFFFF0
007FFF9FFFFFF0
00FFFF3FFFFFF0
03FFFC7FFFFFF0
07FFF9FFFFFFF0
0FFFF3FFFFFFF0
3FFFC7FFFFFFF0
FFFF9FFFFFFFF0
7FFF8FFFFFFFF0
1FFFE7FFFFFFF0
0FFFF1FFFFFFF0
07FFF8FFFFFFF0
01FFFE7FFFFFF0
00FFFF1FFFFFF0
007FFF8FFFFFF0
001FFFE7FFFFF0
000FFFF1FFFFF0
0007FFF8FFFFF0
0001FFFE7FFFF0
0000FFFF1FFFF0
00007FFF8FFFF0
00001FFFC7FFF0
00000FFFC1FFF0
000007FFC0FFF0
000001FFC07FF0
000000FFC01FF0
0000007FC00FF0
0000001FC007F0
0000000FC001F0
00000007C000F0
00000001C00070
00000000C00010
00000000400010
ENDCHAR
STARTCHAR 0049
ENCODING 73
SWIDTH 978 0
DWIDTH 53 0
BBX 51 52 1 -9
BITMAP
F8400000000000
F8600000000000
F8780000000000
F87E0000000000
F87F0000000000
F87F0000000000
F87F0000000000
F87F0800000000
F87F0600000000
F87F0700000000
F87F07C0000000
F87F07F0000000
F87F07F8000000
F87F07FE000000
F87F07FF800000
F87F07FFC00000
F87F07FFF00000
F87F07FFFC0000
F87F07FFFE0000
F87F07FFFF8000
F87F07FFFFE000
F87F07FFFFF000
F87F07FFFFFC00
F87F07FFFFFE00
F87F07FFFFFF80
F87F07FFFFFFE0
F87F07FFFFFFC0
F87F07FFFFFF00
F87F07FFFFFE00
F87F07FFFFF800
F87F07FFFFF000
F87F07FFFFC000
F87F07FFFF0000
F87F07FFFE0000
F87F07FFF80000
F87F07FFE00000
F87F07FFC00000
F87F07FF000000
F87F07FC000000
F87F07F8000000
F87F07E0000000
F87F07C0000000
F87F0700000000
F87F0400000000
F87F0800000000
F87F0000000000
F87F0000000000
F87F0000000000
F87C0000000000
F8700000000000
F8600000000000
F8400000000000
ENDCHAR
STARTCHAR 004A
ENCODING 74
SWIDTH 978 0
DWIDTH 53 0
BBX 52 51 0 -8
BITMAP
00000020000000
00000020000000
00000070000000
000000F8000000
000001F8000000
000001FC000000
000003FE000000
000007FF000000
00000FFF000000
00000FFF800000
00001FFFC00000
00003FFFE00000
00007FFFE00000
00007FFFF00000
0000FFFFF80000
0001FFFFFC0000
0003FFFFFE0000
0007FFFFFE0000
0007FFFFFF0000
000FFFFFFF8000
001FFFFFFFC000
003FFFFFFFC000
003FFFFFFFE000
007FFFFFFFF000
00FFFFFFFFF800
01FFFFFFFFF800
01FFFFFFFFFC00
03FFFFFFFFFE00
07FFFFFFFFFF00
0FFFFFFFFFFF00
0FFFFFFFFFFF80
1FFFFFFFFFFFC0
3FFFFFFFFFFFE0
7FFFFFFFFFFFE0
7FFFFFFFFFFFF0
00000000000000
00000000000000
00000000000000
00000000000000
FFFFFFFFFFFFF0
FFFFFFFFFFFFF0
FFFFFFFFFFFFF0
FFFFFFFFFFFFF0
FFFFFFFFFFFFF0
FFFFFFFFFFFFF0
FFFFFFFFFFFFF0
FFFFFFFFFFFFF0
FFFFFFFFFFFFF0
FFFFFFFFFFFFF0
FFFFFFFFFFFFF0
FFFFFFFFFFFFF0
ENDCHAR
STARTCHAR 004B
ENCODING 75
SWIDTH 978 0
DWIDTH 53 0
BBX 51 52 1 -8
BITMAP
00000000007800
0000000000FC00
0000000001FC00
0000000003FC00
0000000003F800
0000000007F800
0000000007F800
000000000FF000
000000000FE000
000000001FE000
000000003FC000
000000003FC000
000000007F8000
000000007F8000
00000000FF0000
00000000FE0000
1FFFFFFFFE0000
3FFFFFFFFC0000
3FFFFFFFFC0000
7FFFFFFFFC0000
FFFFFFFFFE0000
FFFFFFFFFE0000
3FFFFFFFFF0000
01FFFFFFFF0000
0007FFFFFF8000
00003FFFFFC000
000001FFFFC000
000000FFFFE000
000000FFFFE000
000001FFFFF000
000001FDFFF000
000003FCFFF800
000007F87FFC00
000007F03FFC00
00000FF01FFE00
00000FE00FFE00
00001FC007FF00
00001FC007FF00
00003F8003FF80
001FFF0001FFC0
001FFF0000FFC0
003FFF00007FE0
007FFF00003FE0
00FFFF00001FC0
0003FF80000FC0
00003F80000F80
00001F80000780
00000FC0000300
00000FC0000100
00000780000000
00000300000000
00000100000000
ENDCHAR
STARTCHAR 004C
ENCODING 76
SWIDTH 978 0
DWIDTH 53 0
BBX 45 56 4 -11
BITMAP
000000001000
000000001000
000000003000
000000003800
000000003800
000000007C00
0001FFC07C00
000FFFFFFC00
003FFFFFFE00
00FFFFFFFE00
01FFFFFFFF00
03FFFFFFFF00
07FFFFFFFF80
0FFC0FFFFF80
1F8001FFFF80
3E00007FFFC0
3000003FFFC0
4000003FFFE0
0000007FFFE0
000000FFFFE0
000000FFFFF0
000001FFFFF0
000001FFFFC8
000003FFE000
000007E00000
000000000000
000000000000
000000000000
000000000000
000000000000
000001000000
0000FE000000
007FFE000000
FFFFFC000000
7FFFF8000000
7FFFF8000000
7FFFF0000000
3FFFE0000000
3FFFE0000030
1FFFC00000E0
1FFFF00007C0
1FFFFC001F80
0FFFFFE7FF00
0FFFFFFFFF00
07FFFFFFFE00
07FFFFFFF800
07FFFFFFF000
03FFFFFFE000
03F3FFFF8000
01F007F80000
01E000000000
00E000000000
00E000000000
00C000000000
004000000000
004000000000
ENDCHAR
STARTCHAR 004D
ENCODING 77
SWIDTH 978 0
DWIDTH 53 0
BBX 52 44 0 -5
BITMAP
0000FFF8000000
0003FFFE000000
000FFFFF800000
003FFFFFE00000
007FFFFFF00000
00FFFFFFF80000
03FFF07FFC0000
03FF0007FE0000
07FC0003FF0000
0FF80000FF8000
1FF000007FC000
1FE000003FC000
3FC000001FE000
3F8000000FE000
3F8000000FE000
7F00000007F000
7F00000007F000
7F000003FFFFF0
7E000003FFFFE0
FE000001FFFFE0
FE000000FFFFC0
FE0000007FFF80
FE0000003FFF00
FE0000001FFE00
7E0000000FFC00
7E0000000FF800
7F00000007F800
7F00000003F000
7F80000001E000
3F80000000C000
3FC00000008000
1FC00000000000
1FE00000000000
0FF00000000000
0FFC0001000000
07FE0003800000
03FFC01F800000
01FFFFFF800000
00FFFFFFC00000
007FFFFFC00000
001FFFFFE00000
0007FFFF000000
0001FFFC000000
00003FC0000000
ENDCHAR
STARTCHAR 004E
ENCODING 78
SWIDTH 978 0
DWIDTH 53 0
BBX 52 37 0 -1
BITMAP
00000000000F00
00000000001F80
00000000003FC0
00000000007FE0
0000000000FFF0
0000000001FFF0
0000000003FFF0
0000000007FFF0
000000000FFFE0
000000001FFFC0
000000003FFF80
078000007FFF00
0FC00000FFFE00
1FE00001FFFC00
3FF00003FFF800
7FF80007FFF000
FFFC000FFFE000
FFFE001FFFC000
7FFF003FFF8000
3FFF807FFF0000
1FFFC0FFFE0000
0FFFE1FFFC0000
07FFF3FFF80000
03FFFFFFF00000
01FFFFFFE00000
00FFFFFFC00000
007FFFFF800000
003FFFFF000000
001FFFFE000000
000FFFFC000000
0007FFF8000000
0003FFF0000000
0001FFE0000000
0000FFC0000000
00007F80000000
00003F00000000
00001E00000000
ENDCHAR
STARTCHAR 004F
ENCODING 79
SWIDTH 978 0
DWIDTH 53 0
BBX 52 52 0 -9
BITMAP
1FF00000000000
3FFF8000000000
7FFFF000000000
7FFFFE00000000
FFFFFF80000000
7FFFFFE0000000
7FFFFFF8000000
7FFFFFFE000000
3FFFFFFF000000
0FFFFFFFC00000
0007FFFFE00000
00007FFFF00000
00000FFFF80000
000003FFFC0000
000000FFFE0000
0FC0007FFF0000
3FFC001FFF8000
7FFF800FFFC000
7FFFE007FFE000
FFFFF801FFE000
7FFFFE00FFF000
7FFFFF007FF800
7FFFFFC07FF800
3FFFFFE03FFC00
0FFFFFF01FFE00
001FFFF80FFE00
0003FFFC0FFF00
0000FFFC07FF00
00007FFE03FF00
00001FFF03FF80
00000FFF01FF80
000007FF81FFC0
000003FFC0FFC0
000001FFC0FFC0
01E000FFE0FFE0
07FC00FFE07FE0
1FFE007FE07FE0
3FFF007FF07FE0
3FFF803FF03FE0
7FFF803FF03FF0
7FFFC03FF03FF0
7FFFC01FF83FF0
FFFFC01FF83FF0
7FFFC01FF83FF0
7FFFC01FF83FF0
7FFFC01FF83FF0
7FFF801FF81FF0
3FFF801FF81FF0
3FFF000FF81FF0
1FFE000FF01FE0
07FC0007E00FE0
01E00001C00380
ENDCHAR
STARTCHAR 0050
ENCODING 80
SWIDTH 978 0
DWIDTH 53 0
BBX 49 55 2 -10
BITMAP
000003E0000000
00003FFE000000
0001FFFF800000
0003FFFFE00000
000FFFFFF00000
001FFFFFFC0000
003FFFFFFE0000
007FFFFFFF0000
00FFFE3FFF0000
01FFE007FF8000
01FFC001FFC000
03FF0000FFC000
03FE00007FE000
03FE00003FE000
07FC00001FE000
07F800001FF000
07F800000FF000
07F800000FF000
0FF800000FF000
0FF000000FF000
0FF000000FF000
0FF000000FF000
0FF000000FF000
0FF000000FF000
0FF000000FF000
FFFFFFFFFFFF80
FFFFFFFFFFFF80
FFFFFFFFFFFF80
FFFFFFFFFFFF80
FFFFFFFFFFFF80
FFFFFFFFFFFF80
FFFFFFFFFFFF80
FFFFFC3FFFFF80
FFFFF81FFFFF80
FFFFF80FFFFF80
FFFFF80FFFFF80
FFFFF80FFFFF80
FFFFF80FFFFF80
FFFFFC1FFFFF80
FFFFFC3FFFFF80
FFFFFC3FFFFF80
FFFFFC3FFFFF80
FFFFFC1FFFFF80
FFFFFC1FFFFF80
FFFFFC1FFFFF80
FFFFFC1FFFFF80
FFFFFC1FFFFF80
FFFFFC1FFFFF80
FFFFFFFFFFFF80
FFFFFFFFFFFF80
FFFFFFFFFFFF80
FFFFFFFFFFFF80
FFFFFFFFFFFF80
FFFFFFFFFFFF80
FFFFFFFFFFFF80
ENDCHAR
STARTCHAR 0051
ENCODING 81
SWIDTH 978 0
DWIDTH 53 0
BBX 52 52 0 -9
BITMAP
001FFFFFFFC000
001FFFFFFFC000
001FFFFFFFC000
001FFFFFFFC000
001FFFFFFFC000
001FFFFFFFC000
001FFFFFFFC000
001FFFFFFFC000
001FFFFFFFC000
001FFFFFFFC000
001FFFFFFFC000
001FFFFFFFC000
001FFFFFFFC000
001FFFFFFFC000
001FFFFFFFC000
001FFFFFFFC000
001FFFFFFFC000
001FFFFFFFC000
001FFFFFFFC000
00000030000000
00000030000000
00000030000000
00000030000000
00000030000000
00000030000000
00000030000000
00000030000000
001FFFFFFFE000
001FFFFFFFE000
00180000006000
00180000006000
00180000006000
00180000006000
00180000006000
FFFFFE03FFFFF0
FFFFFE03FFFFF0
FFFFFE03FFFFF0
FFFFFE03FFFFF0
FFFFFE03FFFFF0
FFFFFE03FFFFF0
FFFFFE03FFFFF0
FFFFFE03FFFFF0
FFFFFE03FFFFF0
FFFFFE03FFFFF0
FFFFFE03FFFFF0
FFFFFE03FFFFF0
FFFFFE03FFFFF0
FFFFFE03FFFFF0
FFFFFE03FFFFF0
FFFFFE03FFFFF0
FFFFFE03FFFFF0
FFFFFE03FFFFF0
ENDCHAR
STARTCHAR 0052
ENCODING 82
SWIDTH 978 0
DWIDTH 53 0
BBX 52 31 0 2
BITMAP
00000C00000000
00000E00000000
00000F80000000
000007C0000000
000007E0000000
000003F8000000
007FFFFC3FE000
01FFFFFE3FFC00
07FFFFFF3FFE00
0FFFFFFF3FFF00
1FFFFFFE3FFF80
1FFFFFFC3FFFC0
3FF807F800FFE0
3FC007F0001FE0
7F800FC0000FF0
7F000F800007F0
7E000F000007F0
7E000C000003F0
FE0000000003F0
7E0000000003F0
7E0000000003F0
7F0000000007F0
7F000000000FF0
7F800000001FE0
3FE00000007FE0
1FFFFFFFFFFFC0
1FFFFFFFFFFFC0
0FFFFFFFFFFF80
07FFFFFFFFFF00
01FFFFFFFFFC00
007FFFFFFFF000
ENDCHAR
STARTCHAR 0053
ENCODING 83
SWIDTH 978 0
DWIDTH 53 0
BBX 53 43 0 -4
BITMAP
00000000380000
000000007C0000
00000000FE0000
00000001FF0000
00000003FF8000
00000007FFC000
0000000FFFE000
0000001FFFF000
7FFFFC3FFFF800
FFFFFE7FFFFC00
FFFFFCFFFFFE00
FFFFF9FFFFFF00
FFFFF3FFFFFF80
FFFFE7FFFFFFC0
FFFFEFFFFFFFE0
FFFFCFFEFF7FF0
FFFFDFF8FF1FF0
FF800FE0FF07F0
FF000F80FF01E0
FF3FE07EFF7C08
FE3FFBFEFF7FF0
FE7FFFFEFF7FF0
FE7FFFFEFF7FF0
FE7FFFFEFF7FF0
FCFFFFFEFF7FE0
FCFFFFFEFF7FE0
FCFFFFFEFF7FE0
FDFFFFFEFF7FC0
F9FFFFFEFF7FC0
F9FFFFFEFF7FC0
F9FFFFFEFF7FC0
F3FFFFFEFF7F80
F3FFFFFEFF7F80
F3FFFFFEFF7F80
F7FFFFFE7E7F00
E7FFFFFF00FF00
E7FFFFFFFFFF00
E7FFFFFFFFFF00
CFFFFFFFFFFE00
4FFFFFFFFFFE00
0FFFFFFFFFFE00
1FFFFFFFFFFC00
0FFFFFFFFFFC00
ENDCHAR
STARTCHAR 0054
ENCODING 84
SWIDTH 978 0
DWIDTH 53 0
BBX 52 52 0 -9
BITMAP
000007FF000000
00007FFFE00000
0001FFFFF80000
0007FFFFFE0000
000FFFFFFF8000
003FFFFFFFC000
007FFFFFFFE000
00FFFFFFFFF800
01FFF800FFFC00
03FFC0003FFC00
07FF80000FFE00
07FF000007FF00
0FFF800001FF00
1FFFC00000FF80
1FFFE00000FFC0
3FEFF000007FC0
3FE7F800003FC0
3FC3FC00003FE0
7FC1FE00001FE0
7F80FF00001FE0
7F807F80000FF0
7F803FC0000FF0
7F001FE0000FF0
FF000FF0000FF0
FF0007F8000FF0
FF0003FC000FF0
FF0001FE000FF0
FF0000FF000FF0
FF00007F800FF0
7F00003FC00FF0
7F80001FE00FF0
7F80000FF00FF0
7F800007F81FE0
7FC00003FC1FE0
3FC00001FE3FE0
3FE00000FF3FC0
1FF000007FFFC0
1FF000003FFF80
0FF800001FFF80
0FFC00000FFF00
07FE000007FF00
03FF80001FFE00
03FFE0007FFC00
01FFFC03FFF800
00FFFFFFFFF000
007FFFFFFFE000
001FFFFFFFC000
000FFFFFFF0000
0003FFFFFE0000
0000FFFFF80000
00003FFFC00000
000000F8000000
ENDCHAR
STARTCHAR 0055
ENCODING 85
SWIDTH 978 0
DWIDTH 53 0
BBX 52 46 0 -6
BITMAP
00000030000000
00000078000000
000000F8000000
000001F8000000
000003F8000000
000007F8000000
00000FF8000000
00001FF8000000
00003FF8000000
00007FF8000000
00007FF8000000
0000FFF8000000
0001FFF8000000
7FFFFFF8000000
FFFFFFF8000000
FFFFFFF8000000
FFFFFFF8000000
FFFFFFF8000000
FFFFFFF8000000
FFFFFFF8000000
FFFFFFF87FFFF0
FFFFFFF87FFFF0
FFFFFFF87FFFF0
FFFFFFF87FFFF0
FFFFFFF87FFFF0
FFFFFFF83FFFF0
FFFFFFF8000000
FFFFFFF8000000
FFFFFFF8000000
FFFFFFF8000000
FFFFFFF8000000
7FFFFFF8000000
0003FFF8000000
0001FFF8000000
0000FFF8000000
00007FF8000000
00003FF8000000
00001FF8000000
00000FF8000000
000007F8000000
000003F8000000
000001F8000000
000000F8000000
000000F8000000
00000070000000
00000030000000
ENDCHAR
STARTCHAR 0056
ENCODING 86
SWIDTH 978 0
DWIDTH 53 0
BBX 52 48 0 -7
BITMAP
00000018000000
0000003C000000
0000007C000000
000000FC000000
000001FC000000
000003FC000000
000003FC000000
000007FC000000
00000FFC000000
00001FFC000000
00003FFC000000
00007FFC000000
0000FFFC000000
0001FFFC000000
7FFFFFFC00FC00
FFFFFFFC00FC00
FFFFFFFC00FC00
FFFFFFFC00FC00
FFFFFFFC00FC00
FFFFFFFC00FC00
FFFFFFFC00FC00
FFFFFFFC7FFFF0
FFFFFFFC7FFFF0
FFFFFFFC7FFFF0
FFFFFFFC7FFFF0
FFFFFFFC7FFFF0
FFFFFFFC7FFFF0
FFFFFFFC00FC00
FFFFFFFC00FC00
FFFFFFFC00FC00
FFFFFFFC00FC00
FFFFFFFC00FC00
7FFFFFFC00FC00
0003FFFC00F800
0001FFFC000000
0000FFFC000000
00007FFC000000
00003FFC000000
00001FFC000000
00000FFC000000
000007FC000000
000003FC000000
000001FC000000
000000FC000000
0000007C000000
0000003C000000
0000003C000000
00000018000000
ENDCHAR
STARTCHAR 0057
ENCODING 87
SWIDTH 978 0
DWIDTH 53 0
BBX 52 50 0 -8
BITMAP
007F80000FF800
03FFE0003FFE00
07FFF800FFFF00
0FFFFC01FFFF80
1FFFFE03FFFFC0
3FFFFE07FFFFE0
7FFFFF0FFFFFE0
7FFFFF9FFFFFF0
7FFFFF9FFFFFF0
7FFFFFFFFFFFF0
FFFFFFFFFFFFF0
FFFFFFFFFFFFF0
7FFFFFFFFFFFF0
7FFFFFFFFFFFF0
7FFFFFFFFFFFF0
7FFFFFFFFFFFF0
3FFFFFFFFFFFF0
3FFFFFFFFFFFE0
1FFFFFFFFFFFE0
1FFFFFFFFFFFC0
0FFFFFFFFFFF80
07FFFFFFFFFF80
03FFFFFFFFFF00
03FFFFFFFFFE00
01FFFFFFFFFC00
00FFFFFFFFF800
007FFFFFFFF000
003FFFFFFFE000
001FFFFFFFC000
000FFFFFFF8000
0007FFFFFF0000
0003FFFFFE0000
0001FFFFFC0000
0000FFFFF80000
00007FFFF80000
00003FFFF00000
00001FFFE00000
00000FFFC00000
000007FF800000
000003FF000000
000001FE000000
000000FC000000
000000FC000000
00000078000000
00000070000000
00000070000000
00000030000000
00000020000000
00000020000000
00000020000000
ENDCHAR
STARTCHAR 0058
ENCODING 88
SWIDTH 978 0
DWIDTH 53 0
BBX 43 56 5 -11
BITMAP
001C00000000
007E00000000
007E00000000
007E00000000
007E00000000
007E00000000
007E00000000
007E00000000
007E00000000
007E00000000
007E00000000
007E00000000
007E00000000
007E00000000
007E00000000
007E00000000
007E1F000000
007E1F000000
007E1F030000
007E1F0F8000
007E1F0FC180
007E1F0FC7E0
007E1F0FC7E0
707E1F0FC7E0
F87E3F0FC7E0
FC7FFFFFEFE0
FC7FFFFFFFE0
FC7FFFFFFFE0
FC7FFFFFFFE0
FC7FFFFFFFE0
FC7FFFFFFFE0
FC7FFFFFFFE0
FC7FFFFFFFE0
FC7FFFFFFFE0
FC7FFFFFFFE0
FEFFFFFFFFE0
FFFFFFFFFFE0
FFFFFFFFFFE0
FFFFFFFFFFE0
FFFFFFFFFFE0
FFFFFFFFFFE0
7FFFFFFFFFE0
3FFFFFFFFFE0
3FFFFFFFFFE0
1FFFFFFFFFE0
0FFFFFFFFFE0
0FFFFFFFFFE0
07FFFFFFFFE0
03FFFFFFFFE0
03FFFFFFFFE0
01FFFFFFFFE0
00FFFFFFFFE0
00FFFFFFFFC0
007FFFFFFFC0
003FFFFFFF80
000FFFFFFC00
ENDCHAR
STARTCHAR 0059
ENCODING 89
SWIDTH 978 0
DWIDTH 53 0
BBX 39 55 7 -10
BITMAP
0000380000
00007C0000
00007C0000
00007C0000
00007C0000
00307C1800
00F87C7C00
00FC7C7C00
00FC7C7C00
00FC7C7C00
00FC7C7C00
00FC7C7C00
00FC7C7C3C
00FC7C7C3E
00FC7C7C3E
00FC7C7C3E
00FC7C7C3E
00FC7C7C3E
00FC7C7C3E
00FC7C7C3E
00FC7C7C3E
00FC7C7C3E
00FC7C7C3E
00FC7C7C3E
00FC7C7C3E
00FC7C7C3E
70FC7C7C3E
F8FC7C7E7E
F8FFFFFFFE
F8FFFFFFFE
F8FFFFFFFE
F8FFFFFFFE
F8FFFFFFFE
F8FFFFFFFE
F8FFFFFFFE
F8FFFFFFFE
F8FFFFFFFE
FFFFFFFFFE
FFFFFFFFFE
FFFFFFFFFE
FFFFFFFFFE
FFFFFFFFFE
7FFFFFFFFE
7FFFFFFFFE
3FFFFFFFFE
1FFFFFFFFE
1FFFFFFFFE
0FFFFFFFFE
07FFFFFFFE
07FFFFFFFE
03FFFFFFFE
01FFFFFFFE
01FFFFFFFC
00FFFFFFFC
007FFFFFF8
ENDCHAR
STARTCHAR 005A
ENCODING 90
SWIDTH 978 0
DWIDTH 53 0
BBX 52 53 0 -9
BITMAP
00000000001800
00000000003C00
00000004003C00
0000000E003E00
0000001E001E00
0000003E001F00
0000007E000F00
000000FE000F80
000001FE000F80
000001FE0E0780
000003FE0F07C0
000007FE0F07C0
00000FFE0F87C0
00001FFE0783E0
00003FFE0783E0
00007FFE07C3E0
0000FFFE07C3E0
3FFFFFFE03C3F0
FFFFFFFE03C1F0
FFFFFFFE03E1F0
FFFFFFFE03E1F0
FFFFFFFE03E1F0
FFFFFFFE03E1F0
FFFFFFFE03E1F0
FFFFFFFE03E1F0
FFFFFFFE03E1F0
FFFFFFFE03E1F0
FFFFFFFE03E1F0
FFFFFFFE03E1F0
FFFFFFFE03E1F0
FFFFFFFE03E1F0
FFFFFFFE03E1F0
FFFFFFFE03E1F0
FFFFFFFE03E1F0
FFFFFFFE03C1F0
FFFFFFFE03C3F0
FFFFFFFE07C3E0
7FFFFFFE07C3E0
0001FFFE07C3E0
0000FFFE0783E0
00007FFE0787C0
00003FFE0F07C0
00001FFE0F07C0
00000FFE0F0780
000007FE0E0F80
000003FE000F80
000001FE000F00
000000FE001F00
0000007E001E00
0000003E001E00
0000001E003C00
0000000E003C00
0000000E001800
ENDCHAR
STARTCHAR 005B
ENCODING 91
SWIDTH 978 0
DWIDTH 53 0
BBX 51 51 1 -8
BITMAP
80000000000000
C0000000000000
F0000000000000
FC000000000000
FF000000000000
FFC00000000000
FFF00000000000
FFFC0000000000
FFFF0000000000
FFFFC000000000
FFFFF000000000
FFFFFC00000000
FFFFFF00000000
FFFFFFC0000000
FFFFFFF0000000
FFFFFFFC000000
FFFFFFFF000000
FFFFFFFFC00000
FFFFFFFFF00000
FFFFFFFFFC0000
FFFFFFFFFF0000
FFFFFFFFFFC000
FFFFFFFFFFF000
FFFFFFFFFFFC00
FFFFFFFFFFFF00
FFFFFFFFFFFFE0
FFFFFFFFFFFFC0
FFFFFFFFFFFF00
FFFFFFFFFFFC00
FFFFFFFFFFF000
FFFFFFFFFFC000
FFFFFFFFFF0000
FFFFFFFFFC0000
FFFFFFFFF00000
FFFFFFFFC00000
FFFFFFFF000000
FFFFFFFC000000
FFFFFFF0000000
FFFFFFC0000000
FFFFFF00000000
FFFFFC00000000
FFFFE000000000
FFFF8000000000
FFFE0000000000
FFF80000000000
FFE00000000000
FF800000000000
FE000000000000
F8000000000000
E0000000000000
80000000000000
ENDCHAR
STARTCHAR 005C
ENCODING 92
SWIDTH 978 0
DWIDTH 53 0
BBX 52 52 0 -9
BITMAP
FFFFFFFFFFFFF0
7FFFFFFFFFFFE0
3FFFFFFFFFFFE0
3FFFFFFFFFFFC0
1FFFFFFFFFFFC0
1FFFFFFFFFFF80
0FFFFFFFFFFF80
0FFFFFFFFFFF00
07FFFFFFFFFF00
07FFFFFFFFFE00
03FFFFFFFFFE00
03FFFFFFFFFC00
01FFFFFFFFFC00
01FFFFFFFFF800
00FFFFFFFFF800
00FFFFFFFFF000
007FFFFFFFF000
007FFFFFFFE000
003FFFFFFFE000
003FFFFFFFC000
001FFFFFFFC000
001FFFFFFF8000
000FFFFFFF8000
000FFFFFFF0000
0007FFFFFF0000
0007FFFFFE0000
0003FFFFFE0000
0003FFFFFC0000
0001FFFFFC0000
0001FFFFF80000
0000FFFFF80000
0000FFFFF00000
00007FFFF00000
00007FFFE00000
00003FFFE00000
00003FFFC00000
00001FFFC00000
00001FFF800000
00000FFF800000
00000FFF000000
000007FF000000
000007FE000000
000003FE000000
000003FC000000
000001FC000000
000001F8000000
000000F8000000
000000F0000000
00000070000000
00000060000000
00000020000000
00000020000000
ENDCHAR
STARTCHAR 005D
ENCODING 93
SWIDTH 978 0
DWIDTH 53 0
BBX 52 52 0 -9
BITMAP
00000000000010
00000000000070
000000000001F0
000000000007F0
00000000001FF0
00000000007FF0
0000000001FFF0
0000000007FFF0
000000001FFFF0
000000007FFFF0
00000001FFFFF0
00000007FFFFF0
0000001FFFFFF0
0000007FFFFFF0
000001FFFFFFF0
000007FFFFFFF0
00001FFFFFFFF0
00007FFFFFFFF0
0001FFFFFFFFF0
0007FFFFFFFFF0
001FFFFFFFFFF0
007FFFFFFFFFF0
01FFFFFFFFFFF0
07FFFFFFFFFFF0
1FFFFFFFFFFFF0
FFFFFFFFFFFFF0
3FFFFFFFFFFFF0
0FFFFFFFFFFFF0
03FFFFFFFFFFF0
00FFFFFFFFFFF0
003FFFFFFFFFF0
000FFFFFFFFFF0
0003FFFFFFFFF0
0000FFFFFFFFF0
00003FFFFFFFF0
00000FFFFFFFF0
000003FFFFFFF0
000000FFFFFFF0
0000003FFFFFF0
0000000FFFFFF0
00000003FFFFF0
00000000FFFFF0
000000003FFFF0
000000000FFFF0
0000000003FFF0
0000000000FFF0
00000000003FF0
00000000000FF0
000000000003F0
000000000000F0
00000000000030
00000000000010
ENDCHAR
STARTCHAR 005E
ENCODING 94
SWIDTH 978 0
DWIDTH 53 0
BBX 52 18 0 8
BITMAP
00400000001000
00800000000800
01800000000C00
03000000000E00
07000000000700
0F000000000780
1E0000000007C0
3FFFFFFFFFFFE0
FFFFFFFFFFFFF0
7FFFFFFFFFFFF0
3FFFFFFFFFFFE0
1F0000000007C0
0F000000000780
07000000000700
03800000000E00
01800000000C00
00800000000800
00400000001000
ENDCHAR
STARTCHAR 005F
ENCODING 95
SWIDTH 978 0
DWIDTH 53 0
BBX 20 56 16 -11
BITMAP
002000
007000
00F800
01FC00
03FE00
07FF00
0FFF80
1FFFC0
38F9E0
40F830
80F800
00F800
00F800
00F800
00F800
00F800
00F800
00F800
00F800
00F800
00F800
00F800
00F800
00F800
00F800
00F800
00F800
00F800
00F800
00F800
00F800
00F800
00F800
00F800
00F800
00F800
00F800
00F800
00F800
00F800
00F800
00F800
00F800
00F800
00F800
80F800
60F830
3CF9C0
1FFF80
0FFF00
07FE00
03FC00
01F800
00F000
006000
002000
ENDCHAR
STARTCHAR 0060
ENCODING 96
SWIDTH 978 0
DWIDTH 53 0
BBX 19 56 17 -11
BITMAP
01F000
01F000
01F000
01F000
01F000
01F000
01F000
01F000
01F000
01F000
01F000
01F000
01F000
01F000
01F000
01F000
01F000
01F000
01F000
01F000
01F000
01F000
01F000
01F000
01F000
01F000
01F000
01F000
01F000
01F000
01F000
01F000
01F000
01F000
01F000
01F000
01F000
01F000
01F000
01F000
01F000
01F000
01F000
01F000
01F000
01F000
C1F060
79F3C0
3FFF80
1FFF00
0FFE00
07FC00
03F800
01F000
00E000
004000
ENDCHAR
STARTCHAR 0061
ENCODING 97
SWIDTH 978 0
DWIDTH 53 0
BBX 52 30 0 2
BITMAP
00000000000800
00000000000800
00000000001800
00000F80001800
0000FFF8003C00
0003FFFF003C00
000FFFFFC07C00
001FFFFFF0FC00
003FFFFFFCFE00
007FFFFFFFFE00
00FFFFFFFFFE00
01FFFFFFFFFE00
03FFFFFFFFFF00
03FFFFFFFFFF00
07FFFFFFFFFF00
0FF801FFFFFF80
0FE0003FFFFF80
1F80000FFFFF80
1E000007FFFF80
38000003FFFFC0
30000003FFFFC0
60000007FFFFC0
4000000FFFFFC0
8000001FFFFFE0
0000003FFFFFE0
0000007FFFFFE0
0000007FFFFFE0
000000FFFFFFF0
000001FFFFFFF0
000003FFFFFFF0
ENDCHAR
STARTCHAR 0062
ENCODING 98
SWIDTH 978 0
DWIDTH 53 0
BBX 51 29 1 2
BITMAP
01000000000000
01800000000000
01800000000000
01C000FFC00000
03C007FFF80000
03E03FFFFE0000
03E0FFFFFF0000
03F1FFFFFF8000
07FFFFFFFFC000
07FFFFFFFFE000
07FFFFFFFFF000
0FFFFFFFFFF800
0FFFFFFFFFFC00
0FFFFFFFFFFC00
0FFFFFF807FE00
1FFFFFC0007E00
1FFFFF00001F00
1FFFFE00000F80
1FFFF800000380
3FFFFC000001C0
3FFFFE000000C0
3FFFFF00000020
7FFFFF80000020
7FFFFF80000000
7FFFFFC0000000
7FFFFFE0000000
FFFFFFF0000000
FFFFFFF8000000
FFFFFFFC000000
ENDCHAR
STARTCHAR 0063
ENCODING 99
SWIDTH 978 0
DWIDTH 53 0
BBX 51 55 1 -10
BITMAP
000007FC000000
00000FFE000000
00000FFF000000
00001FFF000000
00001FFF000000
00001FFF000000
00001FFF000000
00001FFF000000
00001FFF000000
00001FFF000000
00001FFF000000
00001FFF000000
00001FFF000000
00001FFF000000
00001FFF000000
00001FFF000000
00001FFF000000
00001FFF000000
00001FFF000000
00001FFF000000
00001FFF000000
00001FFF000000
00001FFF000000
00001FFF000000
00001FFF000000
7C001FFF000780
FF001FFF003FC0
FFE01FFF00FFE0
FFF01FFF03FFE0
FFFE1FFF0FFFE0
FFFF9FFF3FFFE0
FFFFFFFFFFFFE0
7FFFFFFFFFFFC0
7FFFFFFFFFFF80
3FFFFFFFFFFF00
1FFFFFFFFFFE00
0FFFFFFFFFFC00
07FFFFFFFFF800
03FFFFFFFFF000
01FFFFFFFFE000
00FFFFFFFFC000
007FFFFFFF8000
003FFFFFFF0000
001FFFFFFE0000
000FFFFFFC0000
0007FFFFF80000
0003FFFFF00000
0001FFFFE00000
0000FFFFC00000
00007FFF800000
00003FFF000000
00001FFE000000
00000FFC000000
000007F8000000
000001F0000000
ENDCHAR
STARTCHAR 0064
ENCODING 100
SWIDTH 978 0
DWIDTH 53 0
BBX 51 51 1 -9
BITMAP
0000000000F800
0000000003FC00
0000000007FE00
000000000FFF00
020000001FFF80
1F0000003FFFC0
7F8000007FFFC0
7FC00000FFFFE0
FFC00001FFFFE0
FFE00003FFFFE0
FFE00007FFFFC0
FFF0000FFFFFC0
FFF0001FFFFF80
FFF0003FFFFF00
FFF8007FFFFE00
FFF800FFFFF800
FFF801FFFFF000
FFF803FFFFE000
FFFC07FFFFC000
FFFC0FFFFF8000
FFFC1FFFFF0000
FFFE3FFFFE0000
FFFE7FFFFC0000
FFFFFFFFF80000
FFFFFFFFF00000
FFFFFFFFE00000
FFFFFFFFC00000
FFFFFFFF800000
FFFFFFFF000000
FFFFFFFE000000
FFFFFFFC000000
FFFFFFF8000000
FFFFFFF0000000
FFFFFFE0000000
FFFFFFC0000000
FFFFFFF0000000
FFFFFFFE000000
FFFFFFFFC00000
FFFFFFFFF80000
FFFFFFFFFF0000
FFFFFFFFFFC000
FFFFFFFFFFF000
FFFFFFFFFFF800
FFFFFFFFFFFC00
FFFFFFFFFFFC00
FFFFFFFFFFFC00
FFFFFFFFFFFC00
FFFFFFFFFFFC00
7FFFFFFFFFF800
3FFFFFFFFFF000
0FFFFFFFFFC000
ENDCHAR
STARTCHAR 0065
ENCODING 101
SWIDTH 978 0
DWIDTH 53 0
BBX 51 51 1 -8
BITMAP
03E00000000000
07F00000000000
0FF80000000000
1FFC0000000000
3FFE0000000800
7FFF0000003F00
FFFF8000003F80
FFFFC000007FC0
FFFFE00000FFE0
FFFFF00000FFE0
FFFFF80000FFE0
7FFFFC0001FFE0
3FFFFE0001FFE0
1FFFFF0003FFE0
0FFFFF8003FFE0
07FFFFC003FFE0
03FFFFE007FFE0
01FFFFF007FFE0
00FFFFF807FFE0
007FFFFC0FFFE0
003FFFFE0FFFE0
001FFFFF0FFFE0
000FFFFF9FFFE0
0007FFFFDFFFE0
0003FFFFFFFFE0
0001FFFFFFFFE0
0000FFFFFFFFE0
00007FFFFFFFE0
00003FFFFFFFE0
00001FFFFFFFE0
00000FFFFFFFE0
000007FFFFFFE0
000003FFFFFFE0
000001FFFFFFE0
000000FFFFFFE0
000001FFFFFFE0
00000FFFFFFFE0
00007FFFFFFFE0
0003FFFFFFFFE0
001FFFFFFFFFE0
007FFFFFFFFFE0
01FFFFFFFFFFE0
07FFFFFFFFFFE0
07FFFFFFFFFFE0
0FFFFFFFFFFFE0
0FFFFFFFFFFFE0
07FFFFFFFFFFE0
07FFFFFFFFFFC0
03FFFFFFFFFFC0
01FFFFFFFFFF80
00FFFFFFFFFE00
ENDCHAR
STARTCHAR 0066
ENCODING 102
SWIDTH 978 0
DWIDTH 53 0
BBX 52 49 0 -7
BITMAP
000001C0000000
000007F0000000
00000FF8000000
00001FF8000000
00003FF8000000
00007FF0000000
0000FFF0000000
0001FFF0000000
0003FFE0000000
0007FFE0000000
000FFFC0000000
001FFFC0000000
003FFF80000000
007FFF80000000
00FFFF00000000
01FFFF00000000
03FFFE00000000
07FFFE00000000
0FFFFE00000000
1FFFFFFFFFFFE0
3FFFFFFFFFFFF0
7FFFFFFFFFFFF0
7FFFFFFFFFFFF0
FFFFFFFFFFFFF0
FFFFFFFFFFFFF0
FFFFFFFFFFFFF0
7FFFFFFFFFFFF0
7FFFFFFFFFFFF0
3FFFFFFFFFFFF0
1FFFFFFFFFFFF0
0FFFFFFFFFFFE0
07FFFE00000000
03FFFE00000000
01FFFF00000000
00FFFF00000000
007FFF80000000
003FFF80000000
001FFFC0000000
000FFFC0000000
0007FFE0000000
0003FFE0000000
0001FFF0000000
0000FFF0000000
00007FF0000000
00003FF8000000
00001FF8000000
00000FF8000000
000007F0000000
000001C0000000
ENDCHAR
STARTCHAR 0067
ENCODING 103
SWIDTH 978 0
DWIDTH 53 0
BBX 52 48 0 -7
BITMAP
0000003E000000
000000FF000000
000000FF800000
000000FFC00000
000000FFE00000
000000FFF00000
0000007FF80000
0000007FFC0000
0000003FFE0000
0000003FFF0000
0000001FFF8000
0000001FFFC000
0000000FFFE000
0000000FFFF000
00000007FFF800
00000007FFFC00
00000003FFFE00
00000003FFFF00
1FFFFFFFFFFF80
7FFFFFFFFFFFC0
7FFFFFFFFFFFE0
FFFFFFFFFFFFF0
FFFFFFFFFFFFF0
FFFFFFFFFFFFF0
FFFFFFFFFFFFF0
FFFFFFFFFFFFF0
FFFFFFFFFFFFF0
FFFFFFFFFFFFE0
7FFFFFFFFFFFC0
3FFFFFFFFFFF80
00000003FFFF00
00000007FFFE00
00000007FFFC00
0000000FFFF800
0000000FFFF000
0000001FFFE000
0000001FFFC000
0000003FFF8000
0000003FFF0000
0000007FFE0000
0000007FFC0000
0000007FF80000
000000FFF00000
000000FFE00000
000000FFC00000
000000FF800000
0000007F000000
0000003E000000
ENDCHAR
STARTCHAR 0068
ENCODING 104
SWIDTH 978 0
DWIDTH 53 0
BBX 51 56 1 -11
BITMAP
000000E0000000
000003F8000000
000007FC000000
00000FFE000000
00001FFF000000
00003FFF800000
00007FFFC00000
0000FFFFE00000
0001FFFFF00000
0003FFFFF80000
0007FFFFFC0000
000FFFFFFE0000
001FFFFFFF0000
003FFFFFFF8000
007FFFFFFFC000
00FFFFFFFFE000
01FFFFFFFFF000
03FFFFFFFFF800
07FFFFFFFFFC00
0FFFFFFFFFFE00
1FFFFFFFFFFF00
3FFFFFFFFFFF80
7FFFFFFFFFFFC0
FFFFFFFFFFFFE0
FFFFCFFF7FFFE0
FFFF0FFF1FFFE0
FFFC0FFF07FFE0
FFF00FFF01FFE0
FF800FFF007FE0
7E000FFF001FC0
10000FFF000000
00000FFF000000
00000FFF000000
00000FFF000000
00000FFF000000
00000FFF000000
00000FFF000000
00000FFF000000
00000FFF000000
00000FFF000000
00000FFF000000
00000FFF000000
00000FFF000000
00000FFF000000
00000FFF000000
00000FFF000000
00000FFF000000
00000FFF000000
00000FFF000000
00000FFF000000
00000FFF000000
00000FFF000000
00000FFF000000
00000FFF000000
000007FE000000
000001F8000000
ENDCHAR
STARTCHAR 0069
ENCODING 105
SWIDTH 978 0
DWIDTH 53 0
BBX 52 53 0 -9
BITMAP
03FFFFFFFF8000
1FFFFFFFFFF800
3FFFFFFFFFFC00
7FFFFFFFFFFE00
7FFFFFFFFFFE00
7FFFFFFFFFFF00
FFFFFFFFFFFF00
FFFFFFFFFFFF00
FFFFFFFFFFFE00
FFFFFFFFFFFC00
FFFFFFFFFFF800
FFFFFFFFFFE000
FFFFFFFFFF8000
FFFFFFFFFC0000
FFFFFFFFE00000
FFFFFFFF000000
FFFFFFF8000000
FFFFFFE0000000
FFFFFFF0000000
FFFFFFF8000000
FFFFFFFC000000
FFFFFFFE000000
FFFFFFFF000000
FFFFFFFF800000
FFFFFFFFC00000
FFFFFFFFE00000
FFFFFFFFF00000
FFFFFFFFF80000
FFFFFFFFFC0000
FFFF3FFFFE0000
FFFF1FFFFF0000
FFFF0FFFFF8000
FFFE07FFFFC000
FFFE03FFFFE000
FFFE01FFFFF000
FFFC00FFFFF800
FFFC007FFFFC00
FFFC003FFFFE00
FFF8001FFFFF00
FFF8000FFFFF80
FFF80007FFFFC0
FFF00003FFFFE0
FFF00001FFFFF0
7FE00000FFFFF0
7FE000007FFFF0
3FC000003FFFF0
1F8000001FFFF0
070000000FFFE0
0000000007FFC0
0000000003FF80
0000000001FF00
0000000000FE00
00000000007C00
ENDCHAR
STARTCHAR 006A
ENCODING 106
SWIDTH 978 0
DWIDTH 53 0
BBX 52 53 0 -9
BITMAP
001FFFFFFFFE00
00FFFFFFFFFF80
01FFFFFFFFFFE0
03FFFFFFFFFFE0
07FFFFFFFFFFF0
07FFFFFFFFFFF0
07FFFFFFFFFFF0
07FFFFFFFFFFF0
03FFFFFFFFFFF0
03FFFFFFFFFFF0
00FFFFFFFFFFF0
003FFFFFFFFFF0
000FFFFFFFFFF0
0001FFFFFFFFF0
00003FFFFFFFF0
000007FFFFFFF0
000000FFFFFFF0
0000007FFFFFF0
000000FFFFFFF0
000001FFFFFFF0
000003FFFFFFF0
000007FFFFFFF0
00000FFFFFFFF0
00001FFFFFFFF0
00003FFFFFFFF0
00007FFFFFFFF0
0000FFFFFFFFF0
0001FFFFFFFFF0
0003FFFFFFFFF0
0007FFFFEFFFF0
000FFFFFC7FFF0
001FFFFF87FFF0
003FFFFF03FFF0
007FFFFE03FFF0
00FFFFFC03FFF0
01FFFFF801FFF0
03FFFFF001FFF0
07FFFFE001FFF0
0FFFFFC000FFF0
1FFFFF8000FFF0
3FFFFF0000FFF0
7FFFFE00007FF0
7FFFFC00007FF0
FFFFF800007FF0
FFFFF000003FE0
7FFFE000001FE0
7FFFC000001FC0
3FFF8000000700
1FFF0000000000
0FFE0000000000
07FC0000000000
03F80000000000
01E00000000000
ENDCHAR
STARTCHAR 006B
ENCODING 107
SWIDTH 978 0
DWIDTH 53 0
BBX 52 45 0 -5
BITMAP
00000004000000
00000004000000
00000006000000
00000007000000
00000007800000
00000007C00000
00000007E00000
00000007F00000
00000007F80000
00000007FC0000
00000007FE0000
000003FFFF0000
0000FFFFFF8000
0007FFFFFFC000
001FFFFFFFE000
007FFFFFFFF000
00FFFFFFFFF800
01FFFFFFFFFC00
03FFFFFFFFFE00
07FFFFFFFFFF00
0FFFFFFFFFFF80
0FFFFFFFFFFFC0
1FFFFFFFFFFFE0
1FFFFFFFFFFFF0
3FFFFFFFFFFFC0
3FFFC03FFFFF80
3FFE003FFFFE00
7FF8003FFFF800
7FE0003FFFF000
7FC0003FFFC000
7F80003FFF0000
7F00007FFC0000
7E00007FF80000
7C00007FE00000
FC00007F800000
F800007E000000
F000007C000000
F00000F0000000
F00000C0000000
E0000080000000
60000000000000
40000000000000
40000000000000
40000000000000
40000000000000
ENDCHAR
STARTCHAR 006C
ENCODING 108
SWIDTH 1070 0
DWIDTH 58 0
BBX 58 50 0 -8
BITMAP
0000004000000000
000000C000000000
000001C000000000
000003C000000000
000007C000000000
00000FC000000000
00001FC000000000
00003FC000000000
00007FC000000000
0000FFC000000000
0001FFC000000000
0003FFC000000000
0007FFFFE0000000
000FFFFFFF000000
001FFFFFFFE00000
003FFFFFFFFC0000
007FFFFFFFFE0000
00FFFFFFFFFF8000
01FFFFFFFFFFC000
03FFFFFFFFFFE000
07FFFFFFFFFFF000
0FFFFFFFFFFFF800
1FFFFFFFFFFFF800
3FFFFFFFFFFFFC00
7FFFFFFFFFFFFE00
FFFFFFFFFFFFFE00
3FFFFFFFFFFFFE00
0FFFFFF807FFFF00
03FFFFF8007FFF00
01FFFFF8001FFF00
007FFFF80007FF80
001FFFFC0003FF80
000FFFFC0001FF80
0003FFFC0000FF80
0000FFFC00007F80
00003FFC00003F80
00001FFC00001FC0
000007FE00000FC0
000001FE00000FC0
0000007E000007C0
0000003E000007C0
0000000E000003C0
00000002000003C0
00000001000001C0
00000000000001C0
0000000000000080
0000000000000080
0000000000000080
0000000000000080
0000000000000040
ENDCHAR
STARTCHAR 006D
ENCODING 109
SWIDTH 978 0
DWIDTH 53 0
BBX 46 56 3 -11
BITMAP
0003FFFF0000
0003FFFF0000
0003FFFF0000
0003FFFF0000
0003FFFF0000
0003FFFF0000
0003FFFF0000
0003FFFF0000
0003FFFF0000
0003FFFF0000
0003FFFF0000
0003FFFF0000
0003FFFF0000
0003FFFF0000
0003FFFF0000
0003FFFF0000
0003FFFF0000
0003FFFF0000
0003FFFF0000
0003FFFF0000
0003FFFF0000
0003FFFF0000
0003FFFF0000
0003FFFF0000
0003FFFF0000
0003FFFF0000
0003FFFF0000
0003FFFF0000
0003FFFF0000
0003FFFF0000
8003FFFF0000
7FFFFFFFFFFC
3FFFFFFFFFF8
1FFFFFFFFFF0
0FFFFFFFFFE0
07FFFFFFFFC0
03FFFFFFFF80
01FFFFFFFF00
00FFFFFFFE00
00FFFFFFFC00
007FFFFFF800
003FFFFFF000
001FFFFFF000
000FFFFFE000
0007FFFFC000
0003FFFF8000
0001FFFF0000
0000FFFE0000
00007FFC0000
00003FF80000
00001FF00000
00000FE00000
00000FC00000
000007800000
000003000000
000001000000
ENDCHAR
STARTCHAR 006E
ENCODING 110
SWIDTH 978 0
DWIDTH 53 0
BBX 52 43 0 -4
BITMAP
00000100000000
00000300000000
00000700000000
00000F00000000
00001F00000000
00003F00000000
00007F00000000
0000FF00000000
0001FF00000000
0003FF00000000
0007FF00000000
001FFF00000000
003FFF00000000
007FFFFFFFFFF0
00FFFFFFFFFFF0
01FFFFFFFFFFF0
03FFFFFFFFFFF0
07FFFFFFFFFFF0
0FFFFFFFFFFFF0
1FFFFFFFFFFFF0
3FFFFFFFFFFFF0
FFFFFFFFFFFFF0
7FFFFFFFFFFFF0
3FFFFFFFFFFFF0
1FFFFFFFFFFFF0
0FFFFFFFFFFFF0
07FFFFFFFFFFF0
01FFFFFFFFFFF0
00FFFFFFFFFFF0
007FFFFFFFFFF0
003FFF00000000
001FFF00000000
000FFF00000000
0007FF00000000
0003FF00000000
0001FF00000000
0000FF00000000
00007F00000000
00003F00000000
00000F00000000
00000700000000
00000300000000
00000100000000
ENDCHAR
STARTCHAR 006F
ENCODING 111
SWIDTH 978 0
DWIDTH 53 0
BBX 52 43 0 -4
BITMAP
00000004000000
00000004000000
00000006000000
00000007000000
00000007C00000
00000007E00000
00000007F00000
00000007F80000
00000007FC0000
00000007FE0000
00000007FF0000
00000007FF8000
00000007FFC000
FFFFFFFFFFE000
FFFFFFFFFFF000
FFFFFFFFFFF800
FFFFFFFFFFFE00
FFFFFFFFFFFF00
FFFFFFFFFFFF80
FFFFFFFFFFFFC0
FFFFFFFFFFFFE0
FFFFFFFFFFFFF0
FFFFFFFFFFFFE0
FFFFFFFFFFFFC0
FFFFFFFFFFFF80
FFFFFFFFFFFF00
FFFFFFFFFFFE00
FFFFFFFFFFFC00
FFFFFFFFFFF800
FFFFFFFFFFF000
00000007FFE000
00000007FFC000
00000007FF8000
00000007FF0000
00000007FC0000
00000007F80000
00000007F00000
00000007E00000
00000007C00000
00000007800000
00000007000000
00000006000000
00000004000000
ENDCHAR
STARTCHAR 0070
ENCODING 112
SWIDTH 978 0
DWIDTH 53 0
BBX 46 56 3 -11
BITMAP
000001000000
000003800000
000007800000
00000FC00000
00000FE00000
00001FF00000
00003FF80000
00007FFC0000
0000FFFE0000
0001FFFF0000
0003FFFF8000
0007FFFFC000
000FFFFFE000
001FFFFFF000
003FFFFFF800
007FFFFFF800
00FFFFFFFC00
01FFFFFFFE00
01FFFFFFFF00
03FFFFFFFF80
07FFFFFFFFC0
0FFFFFFFFFE0
1FFFFFFFFFF0
3FFFFFFFFFF8
7FFFFFFFFFFC
8003FFFF0000
0003FFFF0000
0003FFFF0000
0003FFFF0000
0003FFFF0000
0003FFFF0000
0003FFFF0000
0003FFFF0000
0003FFFF0000
0003FFFF0000
0003FFFF0000
0003FFFF0000
0003FFFF0000
0003FFFF0000
0003FFFF0000
0003FFFF0000
0003FFFF0000
0003FFFF0000
0003FFFF0000
0003FFFF0000
0003FFFF0000
0003FFFF0000
0003FFFF0000
0003FFFF0000
0003FFFF0000
0003FFFF0000
0003FFFF0000
0003FFFF0000
0003FFFF0000
0003FFFF0000
0003FFFF0000
ENDCHAR
STARTCHAR 0071
ENCODING 113
SWIDTH 978 0
DWIDTH 53 0
BBX 47 56 3 -11
BITMAP
000000008000
000000018000
000000018000
00000003C000
00000003E000
00000007E000
00000007F000
0000000FF000
0000001FF800
0000001FFC00
0000003FFC00
0000003FFE00
0000007FFE00
0000007FFF00
000000FFFF00
FF8001FFFF80
FF8001FFFFC0
FF8003FFFFC0
FF8003FFFFE0
FF8007FFFFE0
FF800FFFFFF0
FF800FFFFFF0
FF801FFFFFF8
FF801FFFFFFC
FF803FFFFFFC
FF807FFFFFFE
FF80000FF000
FF80000FF000
FF80000FF000
FF80000FF000
FF80000FF000
FF80000FF000
FF80000FF000
FF80000FF000
FF80000FF000
FF80000FF000
FF80000FF000
FF80000FF000
FF80000FF000
FF80001FF000
FF80001FF000
FFC0001FF000
7FC0003FF000
7FE0007FE000
7FF000FFE000
3FF801FFC000
3FFF0FFFC000
1FFFFFFF8000
0FFFFFFF0000
07FFFFFF0000
07FFFFFE0000
01FFFFFC0000
00FFFFF00000
003FFFC00000
000FFF000000
000060000000
ENDCHAR
STARTCHAR 0072
ENCODING 114
SWIDTH 978 0
DWIDTH 53 0
BBX 52 44 0 -5
BITMAP
00000180000000
00000780000000
00000F80000000
00003F80000000
0000FF80000000
0003FF80000000
0007FF80000000
001FFF80000000
007FFF80000000
00FFFF80000000
03FFFFFFFF0000
0FFFFFFFFFE000
3FFFFFFFFFF000
FFFFFFFFFFFC00
3FFFFFFFFFFE00
0FFFFFFFFFFF00
07FFFFFFFFFF80
01FFFFFFFFFFC0
007FFF8003FFC0
003FFF8000FFE0
000FFF80007FE0
0003FF80003FE0
0000FF80001FF0
00007F80001FF0
00001F80000FF0
00000780000FF0
00000180000FF0
00000080000FF0
00000000000FF0
00000000000FF0
00000000001FF0
00000000001FF0
00000000003FE0
00000000007FE0
0000000000FFC0
0000000007FFC0
0003FFFFFFFF80
0003FFFFFFFF80
0003FFFFFFFF00
0003FFFFFFFE00
0003FFFFFFFC00
0003FFFFFFF000
0003FFFFFFC000
0003FFFFFE0000
ENDCHAR
STARTCHAR 0073
ENCODING 115
SWIDTH 978 0
DWIDTH 53 0
BBX 52 40 0 -3
BITMAP
00001FFFC00000
0001FFFFFC0000
000FFFFFFF0000
003FFFFFFFC000
00FFFFFFFFF000
01FFFFFFFFFC00
03FFFFFFFFFE00
07FFFFFFFFFF00
0FFFFFFFFFFF80
1FFFFFFFFFFFC0
3FFFFFFFFFFFC0
3FFFFFFFFFFFE0
7FFFFFFFFFFFE0
7FFFFFFFFFFFF0
7FFFFFFFFFFFF0
FFFFFFFFFFFFF0
FFFFFFFFFFFFF0
FFFFFFFFFFFFF0
FFFFFFFFFFFFF0
7FFFFFFFFFFFF0
7FFFFFFFFFFFF0
7FFFFFFFFFFFE0
3FFFFFFFFFFFE0
3FFFFFFFFFFFC0
1FFFFFFFFFFFC0
1FFFFFFFFFFF80
0FFFFFFFFFFF00
07FFFFFFFFFE00
03FFFFFFFFFC00
00FFFFFFFFF000
007FFFFFFFE000
001FFFFFFF0000
0003FFFFFC0000
00007FFFC00000
00001FC0000000
00001F80000000
00003F00000000
00003E00000000
0000FC00000000
0003E000000000
ENDCHAR
STARTCHAR 0074
ENCODING 116
SWIDTH 978 0
DWIDTH 53 0
BBX 52 44 0 -5
BITMAP
3FFFFFFFFFFFE0
7FFFFFFFFFFFF0
FFFFFFFFFFFFF0
FFFFFFFFFFFFF0
FFFFFFFFFFFFF0
FFFFFFFFFFFFF0
FFFFFFFFFFFFF0
FFFFFFFFFFFFF0
FFFFFFFFFFFFF0
FFFFFFFFFFFFF0
FFFFFFFFFFFFF0
FFFFFFFFFFFFF0
FFFFFFFFFFFFF0
FFFFFFFFFFFFF0
FFFFFFFFFFFFF0
FFFFFFFFFFFFF0
FFFFFFFFFFFFF0
FFFFFFFFFFFFF0
FFFFFFFFFFFFF0
FFFFFFFFFFFFF0
FFFFFFFFFFFFF0
FFFFFFFFFFFFF0
FFFFFFFFFFFFF0
FFFFFFFFFFFFF0
FFFFFFFFFFFFF0
FFFFFFFFFFFFF0
FFFFFFFFFFFFF0
FFFFFFFFFFFFF0
FFFFFFFFFFFFF0
FFFFFFFFFFFFF0
FFFFFFFFFFFFF0
7FFFFFFFFFFFF0
7FFFFFFFFFFFE0
1FFFFFFFFFFFC0
000003F8000000
000003F0000000
000007C0000000
00000780000000
00000F00000000
00000E00000000
00001C00000000
00001800000000
00002000000000
00002000000000
ENDCHAR
STARTCHAR 0075
ENCODING 117
SWIDTH 978 0
DWIDTH 53 0
BBX 52 41 0 -3
BITMAP
00000020000000
00003FFFE00000
0003FFFFFC0000
000FFFFFFF8000
003FFFFFFFE000
00FFFFFFFFF800
01FFFFFFFFFC00
07FFFFFFFFFE00
0FFFFFFFFFFF00
1FFFFFFFFFFF80
1FFFFFFFFFFFC0
3FFFFFFFFFFFC0
7FFFFFFFFFFFE0
7FFFFFFFFFFFE0
7FFFFFFFFFFFF0
FFFFFFFFFFFFF0
FFFFFFFFFFFFF0
FFFFFFFFFFFFF0
FFFFFFFFFFFFF0
FFFFFFFFFFFFF0
FFFFFFFFFFFFF0
7FFFFFFFFFFFF0
7FFFFFFFFFFFE0
3FFFFFFFFFFFE0
3FFFFFFFFFFFC0
1FFFFFFFFFFFC0
0FFFFFFFFFFF80
07FFFFFFFFFF00
03FFFFFFFFFE00
01FFFFFFFFFC00
00FFFFFFFFF800
003FFFFFFFE000
000FFFFFFF8000
0001FFFFFC0000
00001FFFE00000
0000003FC00000
0000001FC00000
0000000FC00000
00000003E00000
00000001F00000
000000003E0000
ENDCHAR
STARTCHAR 0076
ENCODING 118
SWIDTH 978 0
DWIDTH 53 0
BBX 52 44 0 -5
BITMAP
3FFFFFFFFFFFC0
7FFFFFFFFFFFF0
FFFFFFFFFFFFF0
FFFFFFFFFFFFF0
FFFFFFFFFFFFF0
FFFFFFFFFFFFF0
FFFFFFFFFFFFF0
FFFFFFFFFFFFF0
FFFFFFFFFFFFF0
FFFFFFFFFFFFF0
FFFFFFFFFFFFF0
FFFFFFFFFFFFF0
FFFFFFFFFFFFF0
FFFFFFFFFFFFF0
FFFFFFFFFFFFF0
FFFFFFFFFFFFF0
FFFFFFFFFFFFF0
FFFFFFFFFFFFF0
FFFFFFFFFFFFF0
FFFFFFFFFFFFF0
FFFFFFFFFFFFF0
FFFFFFFFFFFFF0
FFFFFFFFFFFFF0
FFFFFFFFFFFFF0
FFFFFFFFFFFFF0
FFFFFFFFFFFFF0
FFFFFFFFFFFFF0
FFFFFFFFFFFFF0
FFFFFFFFFFFFF0
FFFFFFFFFFFFF0
FFFFFFFFFFFFF0
7FFFFFFFFFFFF0
7FFFFFFFFFFFE0
1FFFFFFFFFFFC0
000000FE000000
0000007E000000
0000003E000000
0000001F000000
0000000F000000
00000003800000
00000001800000
00000000C00000
00000000400000
00000000200000
ENDCHAR
STARTCHAR 0077
ENCODING 119
SWIDTH 978 0
DWIDTH 53 0
BBX 52 52 0 -9
BITMAP
000000F8000000
000001FC000000
000003FE000000
000007FE000000
000007FE000000
000007FE000000
003C07FE01E000
00FE0FFE03F800
01FF7FFF87F800
01FFFFFFEFFC00
01FFFFFFFFFC00
03FFFFFFFFFC00
01FFFFFFFFFC00
01FFFFFFFFFC00
00FFFFFFFFF800
007FFFFFFFF000
007FFFFFFFE000
00FFFFFFFFC000
00FFFC03FFE000
00FFF800FFE000
01FFF0007FE000
1FFFE0007FFFC0
3FFFE0003FFFE0
7FFFC0003FFFF0
7FFFC0001FFFF0
FFFFC0001FFFF0
FFFFC0001FFFF0
7FFFC0001FFFF0
7FFFC0003FFFF0
3FFFE0003FFFE0
1FFFE0007FFF80
00FFF000FFE000
00FFF801FFC000
007FFE03FFC000
003FFFFFFFC000
003FFFFFFFE000
007FFFFFFFF000
00FFFFFFFFF800
01FFFFFFFFFC00
01FFFFFFFFFC00
03FFFFFFFFFC00
01FFFFFF9FFC00
01FF8FFE0FFC00
01FF07FE07F800
00FE07FE03F000
003807FE01E000
000007FE000000
000007FE000000
000003FE000000
000003FE000000
000001FC000000
000000F0000000
ENDCHAR
STARTCHAR 0078
ENCODING 120
SWIDTH 978 0
DWIDTH 53 0
BBX 52 43 0 -5
BITMAP
000C0000000000
071E0000000000
0F9E0000000000
0FFE0000000000
07FF7000000000
03FFF000000000
77FFF000000000
7F87F000000000
FF03E003000000
7E03E00F800000
1E03E00FC0F000
0F03F81FE1F800
1F03F80FE3F800
3F8FF80FFFF800
7FFFF01FFFF800
7FFF863FFFF800
39FF9FFFFFF000
01FF9FFFFFF000
03E79FFFFFF800
01E39FFFFFFFE0
01C01FFF87FFF0
00000FFE03FFF0
000007FC01FFF0
000007F800FFF0
000007F800FFE0
000007F800FFC0
00001FF800FE00
00003FF800FC00
00007FFC00FC00
00007FFC01FF00
00007FFE03FFC0
00003FFF8FFFC0
00001FFFFFFFE0
000000FFFFFFE0
0000007FFFFFE0
0000007FFFCFC0
0000007FFF8300
000000FFFF8000
000000FF3FC000
000000FE1FC000
0000007C1FC000
000000381FC000
000000000F8000
ENDCHAR
STARTCHAR 0079
ENCODING 121
SWIDTH 978 0
DWIDTH 53 0
BBX 52 46 0 -5
BITMAP
00007FC0000000
0001FFF000F800
0007FFFC03FE00
000FFFFE0FFF80
001FFFFF8FFFC0
003FFC001FF000
007FF8001FE000
00FFF8001FE000
00FFF8001FF3F0
01FFF8003FFFE0
01FFFC003FFFC0
03FFFE003FFFC0
1FFFFF007FFF80
7FE1FF807FFE00
FFC07FC0FFFC00
7FC03FE1FFF000
7FC01FF3FFF000
3FC00FFFFFF800
1FC003FFFF1800
078001FFFC0000
010000FFF00000
0000007FE00000
000001FFC00000
000003FFE00000
000007FFF80000
00000FFFFC0000
00001FFFFE0000
00007FFBFF0000
0000FFF1FF8000
0001FFE0FFC000
0003FFC07FE000
000FFF803FF000
001FFE003FF800
003FFC001FFC00
007FF8000FFE00
00FFF00007FF00
03FFE00003FF80
07FFC00001FFC0
0FFF800000FFE0
0FFF0000007FF0
0FFE0000007FF0
0FFC0000003FE0
0FF80000001FC0
07F00000000F80
03E00000000700
00000000000200
ENDCHAR
STARTCHAR 007A
ENCODING 122
SWIDTH 978 0
DWIDTH 53 0
BBX 52 52 0 -9
BITMAP
00000001000000
00000001000000
00000003000000
00000007000000
0000000E000000
0000001E000000
0000003E000000
0000007E000000
000000FC000000
000000FC000000
000000FC000000
000000FC000000
000001FC000000
000001F8000000
000001F8000000
000001F8000000
000003F8000000
000003F0000000
000003F0000000
000003F0000000
000003F0000070
000007F0000FE0
003007E000FFC0
03FF07E01FFF80
0FFF87E1FFFF00
1FFFCFFFFFFC00
3FFFEFFFFFF800
7F8FFFFFFFF000
7E07FFFFFF8000
7C07FFFFF00000
FC07FFFF000000
FE0FFFF0000000
FFFFFF80000000
7FFFDFC0000000
7FFFBFE0000000
3FFF7FF0000000
1FFCFFF8000000
03E0FFF8000000
0001FFF8000000
0001F8FC000000
0003F07C000000
0003F07C000000
0003F078000000
0003F0F8000000
0003F0F8000000
0003F9F8000000
0003FFF0000000
0001FFF0000000
0001FFE0000000
0000FFC0000000
00007F80000000
00000C00000000
ENDCHAR
STARTCHAR 007B
ENCODING 123
SWIDTH 978 0
DWIDTH 53 0
BBX 52 49 0 -7
BITMAP
000000001FF000
000000001FC000
000000001FC000
000000000FE000
000000000FF000
000000000FF800
0000000007FC00
00000000047E00
00000000043F00
00000000001F00
00000000001F80
00000000000F80
000000000007C0
000000000007C0
000000000003E0
000000000003E0
000000000001E0
000000000001F0
000000000001F0
000000000001F0
000000000000F0
000000000000F0
000000000000F0
F80000000000F0
F80000000000F0
F80000000000F0
780000000001F0
780000000001F0
7C0000000001F0
7C0000000001E0
7C0000000003E0
3E0000000003E0
3E0000000003E0
3F0000000007C0
1F0000000007C0
1F800000000F80
0FC00000001F80
07C00000003F00
07E00000007F00
03F0000000FE00
01FC000001FC00
00FE000007F800
007F80000FF000
003FF0007FE000
001FFF8FFF8000
0007FFFFFF0000
0003FFFFFC0000
00007FFFF00000
00000FFF800000
ENDCHAR
STARTCHAR 007C
ENCODING 124
SWIDTH 978 0
DWIDTH 53 0
BBX 52 49 0 -7
BITMAP
00FFC000000000
003FC000000000
001F8000000000
003F8000000000
007F8000000000
00FF0000000000
01FB0000000000
03F30000000000
07E20000000000
0FC00000000000
0F800000000000
1F800000000000
1F000000000000
3E000000000000
3E000000000000
3E000000000000
7C000000000000
7C000000000000
78000000000000
78000000000000
78000000000000
F8000000000000
F8000000000000
F80000000000F0
F80000000000F0
F80000000000F0
780000000000F0
780000000001F0
7C0000000001F0
7C0000000001F0
7C0000000001E0
3E0000000003E0
3E0000000003E0
3E0000000007C0
1F0000000007C0
1F800000000F80
0F800000001F80
0FC00000003F00
07E00000003E00
03F0000000FE00
01FC000001FC00
00FE000003F800
007F80000FF000
003FE0003FE000
001FFE07FFC000
0007FFFFFF0000
0003FFFFFC0000
0000FFFFF00000
00001FFF800000
ENDCHAR
STARTCHAR 007D
ENCODING 125
SWIDTH 498 0
DWIDTH 27 0
BBX 0 0 0 0
BITMAP
ENDCHAR
STARTCHAR 007E
ENCODING 126
SWIDTH 498 0
DWIDTH 27 0
BBX 0 0 0 0
BITMAP
ENDCHAR
STARTCHAR 00A0
ENCODING 160
SWIDTH 240 0
DWIDTH 13 0
BBX 0 0 0 0
BITMAP
ENDCHAR
STARTCHAR 00A1
ENCODING 161
SWIDTH 332 0
DWIDTH 18 0
BBX 0 0 0 0
BITMAP
ENDCHAR
STARTCHAR 00A2
ENCODING 162
SWIDTH 553 0
DWIDTH 30 0
BBX 0 0 0 0
BITMAP
ENDCHAR
STARTCHAR 00A3
ENCODING 163
SWIDTH 498 0
DWIDTH 27 0
BBX 0 0 0 0
BITMAP
ENDCHAR
STARTCHAR 00A4
ENCODING 164
SWIDTH 498 0
DWIDTH 27 0
BBX 0 0 0 0
BITMAP
ENDCHAR
STARTCHAR 00A5
ENCODING 165
SWIDTH 609 0
DWIDTH 33 0
BBX 0 0 0 0
BITMAP
ENDCHAR
STARTCHAR 00A6
ENCODING 166
SWIDTH 498 0
DWIDTH 27 0
BBX 0 0 0 0
BITMAP
ENDCHAR
STARTCHAR 00A7
ENCODING 167
SWIDTH 498 0
DWIDTH 27 0
BBX 0 0 0 0
BITMAP
ENDCHAR
STARTCHAR 00A8
ENCODING 168
SWIDTH 498 0
DWIDTH 27 0
BBX 0 0 0 0
BITMAP
ENDCHAR
STARTCHAR 00A9
ENCODING 169
SWIDTH 812 0
DWIDTH 44 0
BBX 0 0 0 0
BITMAP
ENDCHAR
STARTCHAR 00AA
ENCODING 170
SWIDTH 313 0
DWIDTH 17 0
BBX 0 0 0 0
BITMAP
ENDCHAR
STARTCHAR 00AB
ENCODING 171
SWIDTH 461 0
DWIDTH 25 0
BBX 0 0 0 0
BITMAP
ENDCHAR
STARTCHAR 00AC
ENCODING 172
SWIDTH 498 0
DWIDTH 27 0
BBX 0 0 0 0
BITMAP
ENDCHAR
STARTCHAR 00AD
ENCODING 173
SWIDTH 978 0
DWIDTH 53 0
BBX 52 52 0 -9
BITMAP
000007FF000000
00007FFFE00000
0001FFFFFC0000
0007FE03FF0000
001FE0003F8000
003F00000FE000
007E000003F000
00F8000000F800
01F00000007C00
03F00000003E00
07F80000301E00
07BC0000700F00
0F1E0000F00780
1E0F0001F00780
1E078003F003C0
3C03C007F003C0
3C01E00FF001E0
3800F01FF001E0
7800001FF000E0
78007FFFF000F0
7000FFFFF000F0
7000FFFFF00070
7000FFFFF00070
F000FFFFF00070
F000FFFFF00070
F000FFFFF00070
F000FFFFF00070
F000FFFFF00070
7000FFFFF00070
7000FFFFF00070
7000FFFFF000F0
7000FFFFF000F0
7800003FF000E0
3800001FF000E0
3800000FF001E0
3C000007F001C0
1C000003F203C0
1E000001F303C0
0F000000F38780
0F00000073CF00
0780000071EF00
03C0000030FE00
03E00000007C00
01F0000000F800
00FC000001F000
007E000007E000
001F80000FC000
000FF0007F8000
0003FFFFFE0000
0000FFFFF80000
00003FFFC00000
000003F8000000
ENDCHAR
STARTCHAR 00AE
ENCODING 174
SWIDTH 812 0
DWIDTH 44 0
BBX 0 0 0 0
BITMAP
ENDCHAR
STARTCHAR 00AF
ENCODING 175
SWIDTH 332 0
DWIDTH 18 0
BBX 0 0 0 0
BITMAP
ENDCHAR
STARTCHAR 00B0
ENCODING 176
SWIDTH 332 0
DWIDTH 18 0
BBX 0 0 0 0
BITMAP
ENDCHAR
STARTCHAR 00B1
ENCODING 177
SWIDTH 498 0
DWIDTH 27 0
BBX 0 0 0 0
BITMAP
ENDCHAR
STARTCHAR 00B2
ENCODING 178
SWIDTH 498 0
DWIDTH 27 0
BBX 0 0 0 0
BITMAP
ENDCHAR
STARTCHAR 00B3
ENCODING 179
SWIDTH 498 0
DWIDTH 27 0
BBX 0 0 0 0
BITMAP
ENDCHAR
STARTCHAR 00B4
ENCODING 180
SWIDTH 498 0
DWIDTH 27 0
BBX 0 0 0 0
BITMAP
ENDCHAR
STARTCHAR 00B5
ENCODING 181
SWIDTH 572 0
DWIDTH 31 0
BBX 0 0 0 0
BITMAP
ENDCHAR
STARTCHAR 00B6
ENCODING 182
SWIDTH 498 0
DWIDTH 27 0
BBX 0 0 0 0
BITMAP
ENDCHAR
STARTCHAR 00B7
ENCODING 183
SWIDTH 240 0
DWIDTH 13 0
BBX 0 0 0 0
BITMAP
ENDCHAR
STARTCHAR 00B8
ENCODING 184
SWIDTH 498 0
DWIDTH 27 0
BBX 0 0 0 0
BITMAP
ENDCHAR
STARTCHAR 00B9
ENCODING 185
SWIDTH 498 0
DWIDTH 27 0
BBX 0 0 0 0
BITMAP
ENDCHAR
STARTCHAR 00BA
ENCODING 186
SWIDTH 350 0
DWIDTH 19 0
BBX 0 0 0 0
BITMAP
ENDCHAR
STARTCHAR 00BB
ENCODING 187
SWIDTH 461 0
DWIDTH 25 0
BBX 0 0 0 0
BITMAP
ENDCHAR
STARTCHAR 00BC
ENCODING 188
SWIDTH 830 0
DWIDTH 45 0
BBX 0 0 0 0
BITMAP
ENDCHAR
STARTCHAR 00BD
ENCODING 189
SWIDTH 960 0
DWIDTH 52 0
BBX 0 0 0 0
BITMAP
ENDCHAR
STARTCHAR 00BE
ENCODING 190
SWIDTH 830 0
DWIDTH 45 0
BBX 0 0 0 0
BITMAP
ENDCHAR
STARTCHAR 00BF
ENCODING 191
SWIDTH 369 0
DWIDTH 20 0
BBX 0 0 0 0
BITMAP
ENDCHAR
STARTCHAR 00C0
ENCODING 192
SWIDTH 756 0
DWIDTH 41 0
BBX 0 0 0 0
BITMAP
ENDCHAR
STARTCHAR 00C1
ENCODING 193
SWIDTH 756 0
DWIDTH 41 0
BBX 0 0 0 0
BITMAP
ENDCHAR
STARTCHAR 00C2
ENCODING 194
SWIDTH 756 0
DWIDTH 41 0
BBX 0 0 0 0
BITMAP
ENDCHAR
STARTCHAR 00C3
ENCODING 195
SWIDTH 756 0
DWIDTH 41 0
BBX 0 0 0 0
BITMAP
ENDCHAR
STARTCHAR 00C4
ENCODING 196
SWIDTH 756 0
DWIDTH 41 0
BBX 0 0 0 0
BITMAP
ENDCHAR
STARTCHAR 00C5
ENCODING 197
SWIDTH 756 0
DWIDTH 41 0
BBX 0 0 0 0
BITMAP
ENDCHAR
STARTCHAR 00C6
ENCODING 198
SWIDTH 1033 0
DWIDTH 56 0
BBX 0 0 0 0
BITMAP
ENDCHAR
STARTCHAR 00C7
ENCODING 199
SWIDTH 683 0
DWIDTH 37 0
BBX 0 0 0 0
BITMAP
ENDCHAR
STARTCHAR 00C8
ENCODING 200
SWIDTH 553 0
DWIDTH 30 0
BBX 0 0 0 0
BITMAP
ENDCHAR
STARTCHAR 00C9
ENCODING 201
SWIDTH 553 0
DWIDTH 30 0
BBX 0 0 0 0
BITMAP
ENDCHAR
STARTCHAR 00CA
ENCODING 202
SWIDTH 553 0
DWIDTH 30 0
BBX 0 0 0 0
BITMAP
ENDCHAR
STARTCHAR 00CB
ENCODING 203
SWIDTH 553 0
DWIDTH 30 0
BBX 0 0 0 0
BITMAP
ENDCHAR
STARTCHAR 00CC
ENCODING 204
SWIDTH 313 0
DWIDTH 17 0
BBX 0 0 0 0
BITMAP
ENDCHAR
STARTCHAR 00CD
ENCODING 205
SWIDTH 313 0
DWIDTH 17 0
BBX 0 0 0 0
BITMAP
ENDCHAR
STARTCHAR 00CE
ENCODING 206
SWIDTH 313 0
DWIDTH 17 0
BBX 0 0 0 0
BITMAP
ENDCHAR
STARTCHAR 00CF
ENCODING 207
SWIDTH 313 0
DWIDTH 17 0
BBX 0 0 0 0
BITMAP
ENDCHAR
STARTCHAR 00D0
ENCODING 208
SWIDTH 738 0
DWIDTH 40 0
BBX 0 0 0 0
BITMAP
ENDCHAR
STARTCHAR 00D1
ENCODING 209
SWIDTH 756 0
DWIDTH 41 0
BBX 0 0 0 0
BITMAP
ENDCHAR
STARTCHAR 00D2
ENCODING 210
SWIDTH 793 0
DWIDTH 43 0
BBX 0 0 0 0
BITMAP
ENDCHAR
STARTCHAR 00D3
ENCODING 211
SWIDTH 793 0
DWIDTH 43 0
BBX 0 0 0 0
BITMAP
ENDCHAR
STARTCHAR 00D4
ENCODING 212
SWIDTH 793 0
DWIDTH 43 0
BBX 0 0 0 0
BITMAP
ENDCHAR
STARTCHAR 00D5
ENCODING 213
SWIDTH 793 0
DWIDTH 43 0
BBX 0 0 0 0
BITMAP
ENDCHAR
STARTCHAR 00D6
ENCODING 214
SWIDTH 793 0
DWIDTH 43 0
BBX 0 0 0 0
BITMAP
ENDCHAR
STARTCHAR 00D7
ENCODING 215
SWIDTH 498 0
DWIDTH 27 0
BBX 0 0 0 0
BITMAP
ENDCHAR
STARTCHAR 00D8
ENCODING 216
SWIDTH 793 0
DWIDTH 43 0
BBX 0 0 0 0
BITMAP
ENDCHAR
STARTCHAR 00D9
ENCODING 217
SWIDTH 738 0
DWIDTH 40 0
BBX 0 0 0 0
BITMAP
ENDCHAR
STARTCHAR 00DA
ENCODING 218
SWIDTH 738 0
DWIDTH 40 0
BBX 0 0 0 0
BITMAP
ENDCHAR
STARTCHAR 00DB
ENCODING 219
SWIDTH 738 0
DWIDTH 40 0
BBX 0 0 0 0
BITMAP
ENDCHAR
STARTCHAR 00DC
ENCODING 220
SWIDTH 738 0
DWIDTH 40 0
BBX 0 0 0 0
BITMAP
ENDCHAR
STARTCHAR 00DD
ENCODING 221
SWIDTH 609 0
DWIDTH 33 0
BBX 0 0 0 0
BITMAP
ENDCHAR
STARTCHAR 00DE
ENCODING 222
SWIDTH 553 0
DWIDTH 30 0
BBX 0 0 0 0
BITMAP
ENDCHAR
STARTCHAR 00DF
ENCODING 223
SWIDTH 609 0
DWIDTH 33 0
BBX 0 0 0 0
BITMAP
ENDCHAR
STARTCHAR 00E0
ENCODING 224
SWIDTH 443 0
DWIDTH 24 0
BBX 0 0 0 0
BITMAP
ENDCHAR
STARTCHAR 00E1
ENCODING 225
SWIDTH 443 0
DWIDTH 24 0
BBX 0 0 0 0
BITMAP
ENDCHAR
STARTCHAR 00E2
ENCODING 226
SWIDTH 443 0
DWIDTH 24 0
BBX 0 0 0 0
BITMAP
ENDCHAR
STARTCHAR 00E3
ENCODING 227
SWIDTH 443 0
DWIDTH 24 0
BBX 0 0 0 0
BITMAP
ENDCHAR
STARTCHAR 00E4
ENCODING 228
SWIDTH 443 0
DWIDTH 24 0
BBX 0 0 0 0
BITMAP
ENDCHAR
STARTCHAR 00E5
ENCODING 229
SWIDTH 443 0
DWIDTH 24 0
BBX 0 0 0 0
BITMAP
ENDCHAR
STARTCHAR 00E6
ENCODING 230
SWIDTH 701 0
DWIDTH 38 0
BBX 0 0 0 0
BITMAP
ENDCHAR
STARTCHAR 00E7
ENCODING 231
SWIDTH 443 0
DWIDTH 24 0
BBX 0 0 0 0
BITMAP
ENDCHAR
STARTCHAR 00E8
ENCODING 232
SWIDTH 443 0
DWIDTH 24 0
BBX 0 0 0 0
BITMAP
ENDCHAR
STARTCHAR 00E9
ENCODING 233
SWIDTH 443 0
DWIDTH 24 0
BBX 0 0 0 0
BITMAP
ENDCHAR
STARTCHAR 00EA
ENCODING 234
SWIDTH 443 0
DWIDTH 24 0
BBX 0 0 0 0
BITMAP
ENDCHAR
STARTCHAR 00EB
ENCODING 235
SWIDTH 443 0
DWIDTH 24 0
BBX 0 0 0 0
BITMAP
ENDCHAR
STARTCHAR 00EC
ENCODING 236
SWIDTH 258 0
DWIDTH 14 0
BBX 0 0 0 0
BITMAP
ENDCHAR
STARTCHAR 00ED
ENCODING 237
SWIDTH 258 0
DWIDTH 14 0
BBX 0 0 0 0
BITMAP
ENDCHAR
STARTCHAR 00EE
ENCODING 238
SWIDTH 258 0
DWIDTH 14 0
BBX 0 0 0 0
BITMAP
ENDCHAR
STARTCHAR 00EF
ENCODING 239
SWIDTH 258 0
DWIDTH 14 0
BBX 0 0 0 0
BITMAP
ENDCHAR
STARTCHAR 00F0
ENCODING 240
SWIDTH 553 0
DWIDTH 30 0
BBX 0 0 0 0
BITMAP
ENDCHAR
STARTCHAR 00F1
ENCODING 241
SWIDTH 535 0
DWIDTH 29 0
BBX 0 0 0 0
BITMAP
ENDCHAR
STARTCHAR 00F2
ENCODING 242
SWIDTH 498 0
DWIDTH 27 0
BBX 0 0 0 0
BITMAP
ENDCHAR
STARTCHAR 00F3
ENCODING 243
SWIDTH 498 0
DWIDTH 27 0
BBX 0 0 0 0
BITMAP
ENDCHAR
STARTCHAR 00F4
ENCODING 244
SWIDTH 498 0
DWIDTH 27 0
BBX 0 0 0 0
BITMAP
ENDCHAR
STARTCHAR 00F5
ENCODING 245
SWIDTH 498 0
DWIDTH 27 0
BBX 0 0 0 0
BITMAP
ENDCHAR
STARTCHAR 00F6
ENCODING 246
SWIDTH 498 0
DWIDTH 27 0
BBX 0 0 0 0
BITMAP
ENDCHAR
STARTCHAR 00F7
ENCODING 247
SWIDTH 498 0
DWIDTH 27 0
BBX 0 0 0 0
BITMAP
ENDCHAR
STARTCHAR 00F8
ENCODING 248
SWIDTH 498 0
DWIDTH 27 0
BBX 0 0 0 0
BITMAP
ENDCHAR
STARTCHAR 00F9
ENCODING 249
SWIDTH 516 0
DWIDTH 28 0
BBX 0 0 0 0
BITMAP
ENDCHAR
STARTCHAR 00FA
ENCODING 250
SWIDTH 516 0
DWIDTH 28 0
BBX 0 0 0 0
BITMAP
ENDCHAR
STARTCHAR 00FB
ENCODING 251
SWIDTH 516 0
DWIDTH 28 0
BBX 0 0 0 0
BITMAP
ENDCHAR
STARTCHAR 00FC
ENCODING 252
SWIDTH 516 0
DWIDTH 28 0
BBX 0 0 0 0
BITMAP
ENDCHAR
STARTCHAR 00FD
ENCODING 253
SWIDTH 424 0
DWIDTH 23 0
BBX 0 0 0 0
BITMAP
ENDCHAR
STARTCHAR 00FE
ENCODING 254
SWIDTH 498 0
DWIDTH 27 0
BBX 0 0 0 0
BITMAP
ENDCHAR
STARTCHAR 00FF
ENCODING 255
SWIDTH 424 0
DWIDTH 23 0
BBX 0 0 0 0
BITMAP
ENDCHAR
STARTCHAR 0131
ENCODING 305
SWIDTH 258 0
DWIDTH 14 0
BBX 0 0 0 0
BITMAP
ENDCHAR
STARTCHAR 02C6
ENCODING 710
SWIDTH 498 0
DWIDTH 27 0
BBX 0 0 0 0
BITMAP
ENDCHAR
STARTCHAR 02C7
ENCODING 711
SWIDTH 498 0
DWIDTH 27 0
BBX 0 0 0 0
BITMAP
ENDCHAR
STARTCHAR 02C9
ENCODING 713
SWIDTH 498 0
DWIDTH 27 0
BBX 0 0 0 0
BITMAP
ENDCHAR
STARTCHAR 02D8
ENCODING 728
SWIDTH 498 0
DWIDTH 27 0
BBX 0 0 0 0
BITMAP
ENDCHAR
STARTCHAR 02D9
ENCODING 729
SWIDTH 498 0
DWIDTH 27 0
BBX 0 0 0 0
BITMAP
ENDCHAR
STARTCHAR 02DA
ENCODING 730
SWIDTH 498 0
DWIDTH 27 0
BBX 0 0 0 0
BITMAP
ENDCHAR
STARTCHAR 02DB
ENCODING 731
SWIDTH 498 0
DWIDTH 27 0
BBX 0 0 0 0
BITMAP
ENDCHAR
STARTCHAR 02DC
ENCODING 732
SWIDTH 498 0
DWIDTH 27 0
BBX 0 0 0 0
BITMAP
ENDCHAR
STARTCHAR 02DD
ENCODING 733
SWIDTH 498 0
DWIDTH 27 0
BBX 0 0 0 0
BITMAP
ENDCHAR
STARTCHAR 037E
ENCODING 894
SWIDTH 978 0
DWIDTH 53 0
BBX 52 52 0 -9
BITMAP
000000F0000000
000000F0000000
000000F0000000
000000F0000000
000000F0000000
000000F0000000
000000F0000000
000000F0000000
000000F0000000
000000F0000000
000000F0000000
000000F0000000
000000F0000000
000000F0000000
000000F0000000
000000F0000000
000000F0000000
000000F0000000
000000F0000000
000000F0000000
000000F0000000
000000F0000000
000000F0000000
000000F0000000
FFFFFFFFFFFFF0
FFFFFFFFFFFFF0
FFFFFFFFFFFFF0
FFFFFFFFFFFFF0
000000F0000000
000000F0000000
000000F0000000
000000F0000000
000000F0000000
000000F0000000
000000F0000000
000000F0000000
000000F0000000
000000F0000000
000000F0000000
000000F0000000
000000F0000000
000000F0000000
000000F0000000
000000F0000000
000000F0000000
000000F0000000
000000F0000000
000000F0000000
000000F0000000
000000F0000000
000000F0000000
000000F0000000
ENDCHAR
STARTCHAR 2013
ENCODING 8211
SWIDTH 535 0
DWIDTH 29 0
BBX 0 0 0 0
BITMAP
ENDCHAR
STARTCHAR 2014
ENCODING 8212
SWIDTH 996 0
DWIDTH 54 0
BBX 0 0 0 0
BITMAP
ENDCHAR
STARTCHAR 2018
ENCODING 8216
SWIDTH 276 0
DWIDTH 15 0
BBX 0 0 0 0
BITMAP
ENDCHAR
STARTCHAR 2019
ENCODING 8217
SWIDTH 276 0
DWIDTH 15 0
BBX 0 0 0 0
BITMAP
ENDCHAR
STARTCHAR 201A
ENCODING 8218
SWIDTH 276 0
DWIDTH 15 0
BBX 0 0 0 0
BITMAP
ENDCHAR
STARTCHAR 201C
ENCODING 8220
SWIDTH 443 0
DWIDTH 24 0
BBX 0 0 0 0
BITMAP
ENDCHAR
STARTCHAR 201D
ENCODING 8221
SWIDTH 443 0
DWIDTH 24 0
BBX 0 0 0 0
BITMAP
ENDCHAR
STARTCHAR 201E
ENCODING 8222
SWIDTH 443 0
DWIDTH 24 0
BBX 0 0 0 0
BITMAP
ENDCHAR
STARTCHAR 2020
ENCODING 8224
SWIDTH 498 0
DWIDTH 27 0
BBX 0 0 0 0
BITMAP
ENDCHAR
STARTCHAR 2021
ENCODING 8225
SWIDTH 498 0
DWIDTH 27 0
BBX 0 0 0 0
BITMAP
ENDCHAR
STARTCHAR 2022
ENCODING 8226
SWIDTH 498 0
DWIDTH 27 0
BBX 0 0 0 0
BITMAP
ENDCHAR
STARTCHAR 2026
ENCODING 8230
SWIDTH 996 0
DWIDTH 54 0
BBX 0 0 0 0
BITMAP
ENDCHAR
STARTCHAR 2039
ENCODING 8249
SWIDTH 313 0
DWIDTH 17 0
BBX 0 0 0 0
BITMAP
ENDCHAR
STARTCHAR 203A
ENCODING 8250
SWIDTH 313 0
DWIDTH 17 0
BBX 0 0 0 0
BITMAP
ENDCHAR
STARTCHAR 2044
ENCODING 8260
SWIDTH 166 0
DWIDTH 9 0
BBX 0 0 0 0
BITMAP
ENDCHAR
STARTCHAR 20A3
ENCODING 8355
SWIDTH 498 0
DWIDTH 27 0
BBX 0 0 0 0
BITMAP
ENDCHAR
STARTCHAR 20A4
ENCODING 8356
SWIDTH 498 0
DWIDTH 27 0
BBX 0 0 0 0
BITMAP
ENDCHAR
STARTCHAR 20A7
ENCODING 8359
SWIDTH 978 0
DWIDTH 53 0
BBX 0 0 0 0
BITMAP
ENDCHAR
STARTCHAR 20AC
ENCODING 8364
SWIDTH 498 0
DWIDTH 27 0
BBX 0 0 0 0
BITMAP
ENDCHAR
STARTCHAR 2116
ENCODING 8470
SWIDTH 1107 0
DWIDTH 60 0
BBX 0 0 0 0
BITMAP
ENDCHAR
STARTCHAR 2122
ENCODING 8482
SWIDTH 720 0
DWIDTH 39 0
BBX 0 0 0 0
BITMAP
ENDCHAR
STARTCHAR 2202
ENCODING 8706
SWIDTH 498 0
DWIDTH 27 0
BBX 0 0 0 0
BITMAP
ENDCHAR
STARTCHAR 2206
ENCODING 8710
SWIDTH 535 0
DWIDTH 29 0
BBX 0 0 0 0
BITMAP
ENDCHAR
STARTCHAR 220F
ENCODING 8719
SWIDTH 738 0
DWIDTH 40 0
BBX 0 0 0 0
BITMAP
ENDCHAR
STARTCHAR 2211
ENCODING 8721
SWIDTH 590 0
DWIDTH 32 0
BBX 0 0 0 0
BITMAP
ENDCHAR
STARTCHAR 2212
ENCODING 8722
SWIDTH 498 0
DWIDTH 27 0
BBX 0 0 0 0
BITMAP
ENDCHAR
STARTCHAR 2215
ENCODING 8725
SWIDTH 166 0
DWIDTH 9 0
BBX 0 0 0 0
BITMAP
ENDCHAR
STARTCHAR 2219
ENCODING 8729
SWIDTH 240 0
DWIDTH 13 0
BBX 0 0 0 0
BITMAP
ENDCHAR
STARTCHAR 221A
ENCODING 8730
SWIDTH 498 0
DWIDTH 27 0
BBX 0 0 0 0
BITMAP
ENDCHAR
STARTCHAR 221E
ENCODING 8734
SWIDTH 498 0
DWIDTH 27 0
BBX 0 0 0 0
BITMAP
ENDCHAR
STARTCHAR 222B
ENCODING 8747
SWIDTH 332 0
DWIDTH 18 0
BBX 0 0 0 0
BITMAP
ENDCHAR
STARTCHAR 2248
ENCODING 8776
SWIDTH 498 0
DWIDTH 27 0
BBX 0 0 0 0
BITMAP
ENDCHAR
STARTCHAR 2264
ENCODING 8804
SWIDTH 498 0
DWIDTH 27 0
BBX 0 0 0 0
BITMAP
ENDCHAR
STARTCHAR 2265
ENCODING 8805
SWIDTH 498 0
DWIDTH 27 0
BBX 0 0 0 0
BITMAP
ENDCHAR
STARTCHAR F001
ENCODING 61441
SWIDTH 516 0
DWIDTH 28 0
BBX 0 0 0 0
BITMAP
ENDCHAR
STARTCHAR F002
ENCODING 61442
SWIDTH 535 0
DWIDTH 29 0
BBX 0 0 0 0
BITMAP
ENDCHAR
STARTCHAR FB01
ENCODING 64257
SWIDTH 516 0
DWIDTH 28 0
BBX 0 0 0 0
BITMAP
ENDCHAR
STARTCHAR FB02
ENCODING 64258
SWIDTH 535 0
DWIDTH 29 0
BBX 0 0 0 0
BITMAP
ENDCHAR
ENDFONT
